<svg width="315" height="335" viewBox="0 0 315 335" fill="none" xmlns="http://www.w3.org/2000/svg">
<g id="undraw_cancel_re_pkdm 1" clip-path="url(#clip0_25_2)">
<path id="Vector" d="M178.576 270.451C253.921 270.451 315 209.909 315 135.226C315 60.5426 253.921 0 178.576 0C103.23 0 42.1511 60.5426 42.1511 135.226C42.1511 209.909 103.23 270.451 178.576 270.451Z" fill="#F2F2F2"/>
<path id="Vector_2" d="M267.727 60.4727H17.8161C17.2802 60.4613 16.855 60.0215 16.8665 59.4903C16.8776 58.9751 17.2963 58.5601 17.8161 58.5491H267.727C268.263 58.5605 268.688 59.0003 268.676 59.5315C268.665 60.0467 268.247 60.4617 267.727 60.4727Z" fill="#CACACA"/>
<path id="Vector_3" d="M182.558 92.8865H113.473C108.284 92.8865 104.077 97.0562 104.077 102.2V102.2C104.077 107.343 108.284 111.513 113.473 111.513H182.558C187.747 111.513 191.953 107.343 191.953 102.2C191.953 97.0562 187.747 92.8865 182.558 92.8865Z" fill="white"/>
<path id="Vector_4" d="M68.8433 130.139H227.187C232.376 130.139 236.583 134.309 236.583 139.452C236.583 144.596 232.376 148.765 227.187 148.765H68.8433C63.6542 148.765 59.4476 144.596 59.4476 139.452C59.4476 134.309 63.6542 130.139 68.8433 130.139Z" fill="white"/>
<path id="Vector_5" d="M68.8433 167.391H227.187C232.376 167.391 236.583 171.561 236.583 176.704C236.583 181.848 232.376 186.018 227.187 186.018H68.8433C63.6542 186.018 59.4476 181.848 59.4476 176.704C59.4476 171.561 63.6542 167.391 68.8433 167.391Z" fill="white"/>
<path id="Vector_6" d="M49.2207 350.181L48.848 350.145C36.2042 348.852 24.7743 342.112 17.5948 331.715C15.6282 328.818 14.0375 325.687 12.8602 322.396L12.747 322.082L13.0821 322.055C17.0819 321.736 21.1909 321.063 23.0163 320.743L11.2458 316.79L11.173 316.444C10.4752 313.194 11.8423 309.85 14.6258 307.999C17.4168 306.059 21.1179 305.997 23.9735 307.842C25.2551 308.654 26.5955 309.457 27.8917 310.235C32.346 312.905 36.952 315.667 40.4053 319.446C45.6418 325.29 47.9371 333.165 46.6518 340.877L49.2207 350.181Z" fill="#F2F2F2"/>
<path id="Vector_7" d="M92.006 344.379L97.8067 344.378L100.567 322.198L92.0044 322.199L92.006 344.379Z" fill="#A0616A"/>
<path id="Vector_8" d="M45.5148 328.452L50.1549 331.902L65.7916 315.803L58.9424 310.71L45.5148 328.452Z" fill="#A0616A"/>
<path id="Vector_9" d="M41.7193 333.129L55.9896 343.74L56.125 343.561C58.4261 340.521 57.8051 336.207 54.7378 333.926L53.6145 330.027L47.2673 328.371L46.0216 327.444L41.7193 333.129Z" fill="#2F2E41"/>
<path id="Vector_10" d="M64.7987 240.293C64.7987 240.293 65.119 248.952 65.5229 255.896C65.5891 257.035 62.8974 258.272 62.9671 259.511C63.0134 260.333 63.5193 261.132 63.5663 261.989C63.6159 262.894 62.9174 263.694 62.9671 264.63C63.0157 265.544 63.8126 266.592 63.8607 267.527C64.378 277.594 66.2533 289.646 64.3755 293.015C63.4501 294.675 51.654 317.677 51.654 317.677C51.654 317.677 58.2264 327.449 60.1042 324.192C62.5844 319.89 81.6991 299.762 81.6991 295.918C81.6991 292.079 86.1213 263.308 86.1213 263.308L89.2048 280.335L90.6187 283.708L90.1744 285.689L91.0881 288.361L91.1375 291.006L92.027 295.918C92.027 295.918 89.3512 334.187 90.8581 335.253C92.3697 336.323 99.6886 338.245 100.552 336.323C101.411 334.401 107.003 296.384 107.003 296.384C107.003 296.384 107.905 278.962 108.881 262.768C108.937 261.828 109.604 260.693 109.656 259.767C109.717 258.692 109.294 257.296 109.351 256.254C109.412 255.058 109.947 254.216 109.998 253.071C110.398 244.225 108.157 233.453 107.444 232.392C105.289 229.19 103.35 226.631 103.35 226.631C103.35 226.631 74.3275 217.179 66.5722 226.784L64.7987 240.293Z" fill="#2F2E41"/>
<path id="Vector_11" d="M93.7449 151.253L82.2397 148.972L76.8706 156.194C66.8522 165.959 66.7013 174.576 68.4897 188.39V207.777L67.1953 220.773C67.1953 220.773 62.613 230.274 67.3392 232.486C72.0654 234.698 103.11 234.509 106.074 233.626C109.037 232.743 106.468 231.659 105.69 227.544C104.228 219.814 105.206 223.543 105.307 221.082C106.749 185.777 103.389 171.283 103.048 167.474L97.1966 156.955L93.7449 151.253Z" fill="#3F3D56"/>
<path id="Vector_12" d="M154.385 179.718C153.186 181.97 150.372 182.832 148.1 181.643C147.858 181.516 147.627 181.369 147.411 181.202L122.564 196.84L122.636 188.326L146.773 174.442C148.492 172.531 151.448 172.364 153.376 174.068C154.989 175.494 155.406 177.83 154.385 179.718Z" fill="#A0616A"/>
<path id="Vector_13" d="M84.6609 161.112L81.8322 160.815C79.2185 160.547 76.654 161.656 75.0757 163.739C74.4712 164.528 74.037 165.433 73.8001 166.396L73.7984 166.404C73.0889 169.303 74.2018 172.341 76.6226 174.113L86.3926 181.253C93.249 190.436 106.135 196.529 121.25 201.478L144.744 187.015L136.434 177.039L120.319 185.6L96.3653 167.22L96.3515 167.209L87.2346 161.387L84.6609 161.112Z" fill="#3F3D56"/>
<path id="Vector_14" d="M89.8575 145.652C97.2674 145.652 103.274 139.698 103.274 132.354C103.274 125.009 97.2674 119.055 89.8575 119.055C82.4476 119.055 76.4407 125.009 76.4407 132.354C76.4407 139.698 82.4476 145.652 89.8575 145.652Z" fill="#A0616A"/>
<path id="Vector_15" d="M90.1674 145.655C90.0592 145.659 89.9508 145.661 89.8425 145.664C89.7962 145.783 89.7462 145.902 89.6885 146.017L90.1674 145.655Z" fill="#2F2E41"/>
<path id="Vector_16" d="M93.8495 132.723C93.8705 132.854 93.9027 132.983 93.9457 133.108C93.928 132.977 93.8957 132.847 93.8495 132.723Z" fill="#2F2E41"/>
<path id="Vector_17" d="M103.445 119.624C102.893 121.323 102.4 119.167 100.584 119.555C98.3982 120.022 95.8551 119.862 94.0654 118.534C91.3988 116.594 87.9431 116.072 84.8147 117.136C81.7524 118.21 76.622 118.967 75.8241 122.088C75.5467 123.173 75.4365 124.351 74.7642 125.25C74.1764 126.036 73.2487 126.484 72.4729 127.089C69.8533 129.132 71.8555 134.936 73.0953 138.003C74.3351 141.07 77.1792 143.304 80.3061 144.449C83.3315 145.556 86.6151 145.751 89.8425 145.664C90.4039 144.221 90.1614 142.554 89.6982 141.058C89.1967 139.439 88.4543 137.876 88.2448 136.194C88.0353 134.513 88.4953 132.603 89.9176 131.664C91.2248 130.8 93.3522 131.326 93.8495 132.723C93.5593 130.977 95.343 129.288 97.1823 128.991C99.157 128.672 101.132 129.379 103.101 129.731C105.07 130.082 104.371 121.866 103.445 119.624Z" fill="#2F2E41"/>
<g id="warn">
<path id="Vector_18" d="M178.482 154.353C179.733 139.373 168.496 126.225 153.383 124.985C138.271 123.745 125.006 134.884 123.756 149.863C122.505 164.843 133.742 177.991 148.854 179.231C163.966 180.47 177.231 169.332 178.482 154.353Z" fill="#F96167"/>
<path id="Vector_19" d="M158.331 140.768L151.119 147.917L143.906 140.768C142.739 139.611 140.846 139.611 139.678 140.768C138.511 141.925 138.511 143.802 139.678 144.959L146.891 152.108L139.678 159.257C138.512 160.415 138.514 162.292 139.682 163.448C140.849 164.602 142.739 164.602 143.906 163.448L151.119 156.299L158.331 163.448C159.5 164.604 161.393 164.602 162.559 163.444C163.724 162.287 163.724 160.414 162.559 159.257L155.347 152.108L162.559 144.959C163.727 143.802 163.727 141.925 162.559 140.768C161.392 139.611 159.499 139.611 158.331 140.768Z" fill="white"/>
</g>
<path id="Vector_20" d="M140.299 129.233C141.108 131.65 139.788 134.259 137.35 135.062C137.09 135.147 136.823 135.21 136.552 135.249L130.735 163.847L124.586 157.901L131.188 131.025C130.988 128.473 132.913 126.242 135.488 126.043C137.642 125.877 139.631 127.196 140.299 129.233Z" fill="#A0616A"/>
<path id="Vector_21" d="M78.4844 166.224L76.3098 168.041C74.3046 169.725 73.337 172.327 73.7604 174.898C73.9169 175.877 74.2748 176.814 74.812 177.65L74.8164 177.657C76.4357 180.171 79.4179 181.478 82.3841 180.974L94.3458 178.929C105.778 180.382 119.134 175.383 133.202 167.998L138.938 141.181L125.922 140.218L120.998 157.671L91.0337 162.08L91.0161 162.082L80.4658 164.573L78.4844 166.224Z" fill="#3F3D56"/>
<g id="Group">
<path id="Vector_22" d="M30.4951 48.2891C33.0036 48.2891 35.0372 46.2285 35.0372 43.6866C35.0372 41.1447 33.0036 39.0841 30.4951 39.0841C27.9866 39.0841 25.953 41.1447 25.953 43.6866C25.953 46.2285 27.9866 48.2891 30.4951 48.2891Z" fill="#3F3D56"/>
<path id="Vector_23" d="M46.1859 48.2891C48.6944 48.2891 50.728 46.2285 50.728 43.6866C50.728 41.1447 48.6944 39.0841 46.1859 39.0841C43.6774 39.0841 41.6438 41.1447 41.6438 43.6866C41.6438 46.2285 43.6774 48.2891 46.1859 48.2891Z" fill="#3F3D56"/>
<path id="Vector_24" d="M61.8767 48.2891C64.3853 48.2891 66.4188 46.2285 66.4188 43.6866C66.4188 41.1447 64.3853 39.0841 61.8767 39.0841C59.3682 39.0841 57.3347 41.1447 57.3347 43.6866C57.3347 46.2285 59.3682 48.2891 61.8767 48.2891Z" fill="#3F3D56"/>
<path id="Vector_25" d="M79.7684 47.3243C79.6289 47.3243 79.4896 47.2707 79.3845 47.1641L76.3197 44.0587C76.1154 43.8518 76.1154 43.5212 76.3197 43.3142L79.3845 40.2091C79.5924 39.9991 79.9329 39.9957 80.144 40.2008C80.3561 40.4064 80.3598 40.7436 80.1524 40.9536L77.455 43.6865L80.1524 46.4196C80.3598 46.6297 80.3561 46.9668 80.144 47.1725C80.0396 47.2738 79.904 47.3243 79.7684 47.3243Z" fill="#3F3D56"/>
<path id="Vector_26" d="M84.9184 47.3243C84.7828 47.3243 84.6472 47.2738 84.5428 47.1725C84.3306 46.9668 84.327 46.6299 84.5344 46.4196L87.2315 43.6865L84.5344 40.9536C84.327 40.7436 84.3306 40.4064 84.5428 40.2008C84.7544 39.9949 85.0949 39.9988 85.3023 40.2091L88.3668 43.3142C88.5711 43.5212 88.5711 43.8518 88.3668 44.0587L85.3023 47.1641C85.1971 47.2707 85.0579 47.3243 84.9184 47.3243Z" fill="#3F3D56"/>
<path id="Vector_27" d="M245.249 39.617H239.551C238.901 39.617 238.374 40.1387 238.374 40.7829V46.4368C238.374 47.081 238.901 47.6027 239.551 47.6027H245.249C245.899 47.6027 246.431 47.081 246.431 46.4368V40.7829C246.431 40.1387 245.899 39.617 245.249 39.617Z" fill="#3F3D56"/>
<path id="Vector_28" d="M231.284 39.617H225.586C224.936 39.617 224.41 40.1387 224.41 40.7829V46.4368C224.41 47.081 224.936 47.6027 225.586 47.6027H231.284C231.934 47.6027 232.466 47.081 232.466 46.4368V40.7829C232.466 40.1387 231.934 39.617 231.284 39.617Z" fill="#3F3D56"/>
<path id="Vector_29" d="M258.408 39.8831H252.71C252.06 39.8831 251.533 40.4049 251.533 41.0491V46.703C251.533 47.3472 252.06 47.8689 252.71 47.8689H258.408C259.058 47.8689 259.59 47.3472 259.59 46.703V41.0491C259.59 40.4049 259.058 39.8831 258.408 39.8831Z" fill="#3F3D56"/>
<path id="Vector_30" d="M172.514 42.034H126.962C126.167 42.034 125.528 42.6728 125.528 43.4555C125.528 44.2381 126.167 44.8769 126.962 44.8769H172.514C173.303 44.8769 173.948 44.238 173.948 43.4555C173.948 42.6729 173.303 42.034 172.514 42.034Z" fill="#3F3D56"/>
</g>
</g>
<defs>
<clipPath id="clip0_25_2">
<rect width="315" height="351" fill="white"/>
</clipPath>
</defs>
</svg>
