<svg width="1192" height="636" viewBox="0 0 1192 636" fill="none" xmlns="http://www.w3.org/2000/svg">
<g id="Frame 1">
<g id="america" filter="url(#filter0_d_10_126)">
<path d="M292.732 67.2175C292.358 64.2641 291.603 61.3717 290.484 58.6129C290.342 58.0912 290.092 57.6049 289.751 57.1851C289.41 56.7652 288.986 56.4209 288.504 56.1741C287.861 56.0069 287.186 55.9993 286.54 56.1522L276.452 57.6956C275.608 57.7342 274.8 58.0483 274.151 58.5899C272.837 59.9716 274.131 62.1965 274.09 64.1027C274.045 66.2462 272.141 67.986 270.075 68.5617C267.967 68.9876 265.793 68.9607 263.696 68.4826L249.591 66.2906C253.745 64.9644 257.442 62.4969 260.261 59.1699C262.117 56.971 263.105 52.8657 260.422 51.8244C259.625 51.6057 258.794 51.539 257.973 51.6277C251.582 51.6774 246.553 46.3417 240.57 44.0945C236.741 42.7492 232.585 42.6491 228.696 43.8085C224.806 44.968 221.383 47.3276 218.916 50.5499L226.43 50.9122C227.137 50.8731 227.838 51.0601 228.431 51.4459C230.078 52.7989 228.031 55.3976 228.263 57.5162C228.564 60.2687 232.219 60.8564 234.974 61.1347C237.729 61.413 241.224 63.6514 239.898 66.0826C226.052 70.852 211.961 56.7594 197.419 58.4942C193.739 58.9333 190.264 60.3791 186.67 61.2883C164.719 66.8421 142.026 52.0239 119.602 55.1621C114.617 56.012 109.718 57.3041 104.962 59.0233C101.91 60.0254 98.7267 61.1084 96.5091 63.4324C94.2916 65.7564 93.4477 69.7308 95.5484 72.1609C89.7582 72.6377 83.9293 72.0836 78.3326 70.5244C79.8461 71.3657 81.1052 72.5989 81.9777 74.0946C82.8502 75.5902 83.3039 77.2932 83.2913 79.0247C74.2506 80.4989 65.4493 83.1826 57.1241 87.0035C58.6779 89.5873 60.4927 92.0049 62.5401 94.2182L51.0947 101.571C54.9615 102.545 56.9607 107.818 54.7121 111.111C58.7215 109.328 61.2063 104.713 65.4937 103.778C68.3025 103.165 71.1606 104.314 73.8252 105.393C76.4897 106.473 79.4184 107.519 82.1768 106.709C84.9352 105.899 86.9698 102.323 85.217 100.044C97.0072 96.6038 109.192 94.7 121.47 94.3798C122.417 94.2609 123.378 94.4432 124.215 94.9009C125.814 96.0097 125.393 98.4047 125.307 100.348C125.221 102.291 126.736 104.845 128.472 103.969C126.429 105.741 128.176 109.077 130.136 110.94C132.097 112.804 134.46 115.375 133.259 117.798C132.946 118.431 132.415 118.937 132.113 119.575C131.224 121.46 132.636 123.656 134.302 124.907C135.968 126.159 138.009 127.033 139.167 128.766C140.324 130.499 139.798 133.531 137.729 133.773L131.847 126.305C129.837 128.389 128.459 131 127.873 133.835C134.111 138.934 135.049 149.313 129.827 155.448C127.158 158.583 123.363 160.489 120.051 162.934C116.738 165.38 113.674 168.862 113.682 172.979C113.696 180.092 113.115 186.7 115.78 193.295C120.696 205.455 126.37 217.295 132.771 228.743C134.452 231.749 136.624 235.044 140.029 235.561C135.726 225.085 131.852 214.446 128.408 203.644C130.651 203.653 133.244 203.831 134.559 205.648C135.648 207.153 135.414 209.2 135.752 211.026C136.182 212.796 136.9 214.483 137.877 216.021L158.426 252.625C160.13 255.66 162.084 258.917 165.339 260.146C167.421 260.932 169.829 260.784 171.745 261.915C173.247 262.801 174.258 264.375 175.789 265.21C180.118 267.572 186.138 263.043 190.183 265.862C191.34 266.669 192.076 267.949 193.142 268.872C196.878 272.108 203.007 269.943 207.32 272.357C210.1 273.913 211.541 277.024 213.023 279.843C216.737 286.905 222.747 293.824 230.706 294.386C233.206 294.563 235.76 294.089 238.204 294.645C240.648 295.201 243.054 297.334 242.661 299.809C241.989 304.053 244.086 308.701 243.522 312.96C242.497 320.72 231.49 324.13 230.545 331.9C230.338 333.601 230.662 335.357 230.257 337.022C229.76 339.063 228.228 340.724 227.683 342.753C226.651 346.597 229.405 350.423 232.431 353.009C235.456 355.595 239.065 357.825 240.72 361.446C242.468 365.272 241.609 369.734 242.178 373.903C243.419 383.003 251.279 389.75 259.369 394.1C261.833 395.425 264.479 396.708 266.075 399.007C268.157 402.008 267.949 405.964 268.645 409.55C270.347 418.331 277.74 425.567 277.95 434.51C278.099 440.866 274.566 446.632 272.455 452.629C270.476 458.376 269.76 464.481 270.356 470.529C270.951 476.577 272.844 482.425 275.906 487.675C277.485 490.341 279.373 492.855 280.49 495.745C282.483 500.902 281.836 506.765 283.674 511.98C286.104 518.875 292.78 524.57 292.141 531.852C295.172 538.146 301.864 541.238 308.594 543.112L320.656 546.469C322.965 547.112 325.379 547.76 327.73 547.295C330.082 546.829 332.326 544.876 332.266 542.48C326.351 541.146 320.246 539.727 315.371 536.123C310.495 532.519 307.155 526.1 309.005 520.326C309.862 517.649 311.687 514.557 309.952 512.344C308.959 511.078 307.142 510.747 306.022 509.591C304.274 507.788 304.875 504.76 306.131 502.586C307.388 500.412 309.204 498.47 309.71 496.01C309.966 494.635 309.795 493.214 309.221 491.938C308.646 490.662 307.695 489.592 306.495 488.873C308.731 488.028 310.765 486.723 312.465 485.042C314.035 483.249 314.76 480.485 313.525 478.447C317.192 478.912 321.522 479.14 323.93 476.334C325.852 474.094 325.72 470.745 324.961 467.892C324.201 465.039 322.917 462.268 322.877 459.316C331.337 459.717 339.816 459.43 348.23 458.457C347.013 454.359 344.248 450.897 340.522 448.803C344.332 448.158 347.804 443.596 349.008 439.924C350.212 436.252 349.905 432.251 349.161 428.459C348.875 427.482 348.836 426.45 349.047 425.455C349.476 424.088 350.819 423.253 352.062 422.539L370.976 411.677C372.105 411.111 373.128 410.356 374.001 409.444C375.983 407.116 375.689 403.602 374.674 400.719C373.66 397.835 372.034 395.123 371.643 392.091C370.474 383.024 380.181 376.518 383.457 367.982C384.742 364.633 385.004 360.992 385.253 357.412C385.52 353.568 385.54 349.103 382.589 346.625C379.759 344.251 375.338 344.78 372.377 342.571C369.663 340.546 368.726 336.613 365.761 334.977C363.068 333.492 359.691 334.437 356.696 333.738C351.422 332.508 348.104 326.43 342.718 325.867C339.679 325.55 336.24 327.035 333.749 325.265C331.555 323.706 331.467 320.572 331.049 317.912C330.317 313.779 328.336 309.969 325.372 306.996C322.409 304.023 318.605 302.029 314.474 301.284C311.341 300.781 307.931 300.972 305.265 299.25C302.566 297.507 301.329 294.243 299.209 291.828C295.792 287.937 290.41 286.554 285.369 285.369L264.863 280.548C261.223 279.693 256.531 279.239 254.578 282.428C254 283.642 253.59 284.929 253.361 286.254C252.629 288.651 251.156 290.754 249.154 292.262C247.151 293.769 244.723 294.602 242.217 294.642C240.498 291.711 237.714 289.557 234.445 288.629C232.366 288.05 230.14 287.985 228.157 287.133C227.077 286.606 226.116 285.864 225.333 284.952C224.549 284.041 223.96 282.979 223.602 281.832C223.243 280.685 223.122 279.477 223.246 278.281C223.371 277.086 223.738 275.929 224.325 274.88C225.507 272.775 225.963 270.34 225.624 267.95C225.284 265.559 224.168 263.347 222.446 261.655C218.959 258.524 213.914 257.768 209.238 258.081C208.014 255.409 210.061 252.394 212.268 250.452C214.475 248.51 217.154 246.601 217.635 243.701C218.39 239.14 212.57 235.675 208.151 237.036C203.732 238.396 200.912 242.688 199.047 246.919C197.977 249.347 197.068 251.903 195.38 253.95C193.693 255.997 190.976 257.463 188.405 256.806C184.767 255.876 183.361 251.553 182.556 247.884C181.475 242.962 180.389 237.972 180.615 232.939C180.841 227.905 182.538 222.736 186.25 219.328C192.299 213.775 201.578 214.319 209.742 215.205C207.813 213.032 208.29 209.37 210.353 207.325C211.443 206.357 212.752 205.669 214.167 205.322C215.582 204.974 217.06 204.977 218.474 205.33C220.934 205.842 223.15 207.167 224.765 209.091C227.085 211.92 227.745 215.738 229.498 218.949C231.252 222.159 235.194 224.897 238.421 223.175C241.209 221.687 241.651 217.822 240.958 214.74C240.264 211.657 238.79 208.66 239.042 205.51C239.521 199.501 245.751 195.883 251.248 193.408C256.745 190.933 263.04 187.605 263.911 181.639C263.941 180.471 264.161 179.316 264.563 178.219C265.173 177.25 266.02 176.453 267.025 175.904C283.069 165.301 299.379 154.569 317.717 148.776C318.671 148.474 318.783 148.809 319.755 148.573C321.116 147.787 320.214 145.611 318.91 144.734C317.605 143.858 315.861 143.186 315.53 141.65C315.287 140.52 315.952 139.411 316.125 138.269C316.55 135.462 313.192 132.87 310.584 133.992C309.111 132.042 312.026 129.775 314.383 129.126C321.46 127.178 328.724 125.992 336.053 125.586C336.899 125.452 337.765 125.599 338.519 126.005C339.75 126.858 339.593 128.814 338.72 130.031C337.848 131.248 336.491 132.012 335.404 133.042C334.216 134.199 333.369 135.66 332.955 137.266C332.541 138.871 332.576 140.56 333.056 142.147C336.882 144.093 341.041 146.096 345.279 145.411C349.516 144.725 353.277 139.964 351.285 136.162C349.431 132.621 343.859 131.822 342.901 127.941C341.779 123.397 348.211 119.356 346.763 114.906C346.128 112.956 344.185 111.809 342.694 110.402C340.934 108.676 339.736 106.459 339.259 104.04C338.782 101.622 339.047 99.1153 340.02 96.8503C337.592 97.2774 335.097 97.1161 332.744 96.3798C330.391 95.6435 328.249 94.3537 326.497 92.6186C323.263 89.3543 320.682 84.205 316.089 84.3511C311.875 84.4851 308.244 89.4024 304.303 87.9022C303.333 87.5331 302.311 86.782 301.372 87.2221C301.064 87.422 300.805 87.6892 300.616 88.0037C300.427 88.3181 300.311 88.6715 300.278 89.0371C299.277 93.8255 301 99.2812 298.39 103.419C295.55 107.922 288.981 108.546 285.538 112.606C283.669 114.81 282.945 117.78 281.227 120.104C279.51 122.428 275.863 123.905 273.802 121.88C274.815 119.797 275.092 117.432 274.587 115.172C274.082 112.911 272.825 110.889 271.022 109.435C269.108 108.186 267.044 107.183 264.88 106.448C262.462 105.424 260.162 104.142 258.02 102.624C256.946 101.977 256.074 101.044 255.501 99.9292C255.047 98.5337 255.108 97.0219 255.673 95.6675C256.719 92.6704 258.563 90.0157 261.007 87.9901C263.45 85.9645 266.401 84.645 269.54 84.1738C272.285 83.8004 275.48 83.932 277.296 81.8406C278.258 80.7339 278.762 79.0609 280.157 78.6114C281.049 78.4321 281.976 78.5462 282.798 78.9367L293.043 82.5429C294.186 83.0589 295.445 83.267 296.693 83.1465C297.312 83.0631 297.877 82.7487 298.274 82.2664C298.67 81.7841 298.87 81.1695 298.833 80.546C298.505 78.8446 295.887 78.0282 296.126 76.3121C296.259 75.7559 296.558 75.2533 296.983 74.8707C300.681 70.9353 305.202 67.8661 310.225 65.8828C315.247 63.8995 320.646 63.0511 326.034 63.3984C327.328 65.5222 325.282 68.0372 323.581 69.8502C321.879 71.6633 320.512 74.9027 322.569 76.2983C323.413 76.7287 324.351 76.94 325.297 76.9126C327.82 77.2541 330.271 77.9976 332.558 79.1149C336.099 80.6556 339.571 82.3414 342.975 84.1722C342.675 81.9275 342.388 79.5627 343.238 77.4638C344.089 75.3649 346.507 73.7187 348.62 74.5361C350.655 75.3238 351.699 78.0191 353.868 78.266C356.76 78.5954 357.902 74.3218 356.693 71.6729C355.485 69.024 353.093 66.8059 352.893 63.9013C352.759 61.9417 353.504 59.5114 351.939 58.3248C351.382 57.9686 350.75 57.7468 350.092 57.6772L311.008 50.4851C308.687 50.058 305.334 50.3853 305.231 52.7429C305.174 54.0589 306.349 55.3609 305.829 56.5708C305.273 57.8622 303.447 57.7441 302.118 58.2009C300.055 58.9096 299.019 61.3593 299.218 63.5317C299.58 65.6903 300.416 67.7419 301.666 69.5392C299.123 68.4761 295.274 68.2806 292.732 67.2175Z" fill="#3F3D56"/>
</g>
<g id="Vector" filter="url(#filter1_d_10_126)">
<path d="M261.547 34.0401C259.082 33.2244 256.427 33.1865 253.94 33.9312C251.453 34.676 249.255 36.1675 247.644 38.2036C247.001 39.0509 246.46 40.219 246.999 41.1365C247.772 42.4519 249.74 41.9323 251.191 41.4618C253.323 40.6998 255.645 40.6444 257.811 41.3039C259.174 41.7717 260.393 42.5984 261.761 43.0485C262.428 43.3272 263.157 43.4192 263.871 43.3148C264.586 43.2104 265.258 42.9135 265.817 42.4559C266.756 41.498 266.815 40.0089 266.817 38.6674C266.882 38.2185 266.846 37.7607 266.712 37.3275C266.577 36.8943 266.348 36.4965 266.04 36.1632C265.493 35.8459 264.877 35.6639 264.245 35.6321C262.829 35.37 261.549 34.6221 260.625 33.5173" fill="#3F3D56"/>
</g>
<g id="Vector_2" filter="url(#filter2_d_10_126)">
<path d="M275.64 30.1163C275.088 30.0862 274.538 30.1986 274.043 30.4426C273.547 30.6865 273.123 31.0539 272.81 31.5093C272.498 31.9648 272.307 32.4929 272.258 33.0431C272.209 33.5932 272.302 34.1468 272.528 34.6507C274.222 35.1126 275.991 35.228 277.731 34.9899C278.599 34.8552 279.407 34.4667 280.054 33.8733C280.701 33.28 281.158 32.5083 281.368 31.6557C279.32 32.0284 277.206 31.6247 275.44 30.5235" fill="#3F3D56"/>
</g>
<g id="Vector_3" filter="url(#filter3_d_10_126)">
<path d="M322.923 23.5632C318.313 24.5433 313.834 26.0647 309.581 28.0955C311.586 28.8662 313.29 30.2607 314.443 32.0734C315.596 33.8861 316.136 36.0212 315.983 38.1639C315.803 38.9865 315.824 39.8404 316.044 40.6533C316.534 41.8412 317.954 42.287 319.202 42.5919C321.445 43.2744 323.787 43.5733 326.129 43.476C327.301 43.4147 328.439 43.0622 329.44 42.4504C330.441 41.8386 331.274 40.9869 331.863 39.9722C332.202 39.0092 332.601 38.0679 333.055 37.1536C336.048 32.5965 344.937 38.1067 348.149 33.7022C349.281 32.1507 349.177 29.8152 350.653 28.5858C351.416 28.0502 352.3 27.7127 353.226 27.6037C359.687 26.3201 366.213 25.3907 372.775 24.8196C375.884 24.549 379.936 23.4326 379.962 20.3117C368.251 18.0117 356.108 19.6453 345.421 24.9585C341.571 26.887 336.478 30.9438 332.769 28.387C331.38 27.4297 331.449 24.8519 329.538 23.7754C327.584 22.6749 324.997 23.1225 322.923 23.5632Z" fill="#3F3D56"/>
</g>
<g id="antartica" filter="url(#filter4_d_10_126)">
<path d="M361.222 30.7252L366.719 31.7815C365.707 31.7367 364.698 31.9082 363.757 32.2846C362.817 32.6609 361.967 33.2335 361.266 33.9641C360.564 34.6948 360.027 35.5666 359.689 36.5215C359.351 37.4764 359.22 38.4923 359.306 39.5016C364.454 41.2214 370.067 39.5479 375.49 39.7765C380.913 40.0051 387.222 43.8788 386.297 49.227C386.017 50.8442 385.082 52.4602 385.568 54.0278C385.909 55.1266 386.878 55.9062 387.425 56.9181C388.564 59.0268 387.654 61.694 386.214 63.6109C384.775 65.5278 382.841 67.0572 381.578 69.0943C378.436 74.1609 380.221 80.7109 382.092 86.3712C382.633 88.5099 383.633 90.5056 385.021 92.2201C387.794 95.1683 392.313 95.4247 396.36 95.4837C399.305 95.5267 402.679 95.3812 404.542 93.0991C406.974 90.1197 405.273 85.4712 406.874 81.9744C408.328 78.7987 412.033 77.4363 415.389 76.47C421.539 74.6997 427.805 73.1948 433.618 70.5208C440.837 67.2005 447.583 62.0261 455.518 61.5987C457.744 61.4788 460.025 61.7415 462.169 61.1317C464.313 60.5218 466.35 58.6681 466.187 56.4448C466.049 54.5452 464.441 53.1503 463.186 51.7183C461.93 50.2863 460.944 48.0843 462.098 46.5693L482.894 42.6848C481.42 38.6674 480.272 33.3763 483.659 30.7613C484.882 29.8178 486.518 29.4407 487.559 28.3001C489.332 26.356 488.44 23.0071 486.393 21.3537C484.346 19.7004 481.577 19.3165 478.955 19.0987C469.836 18.3414 460.665 18.8418 451.528 19.3426C433.668 20.3216 415.808 21.3006 397.949 22.2795C394.353 22.4766 390.202 22.1755 386.905 23.4021C384.113 24.4405 382.128 26.3467 378.936 27.0164C373.042 28.2528 366.555 27.4161 361.222 30.7252Z" fill="#3F3D56"/>
</g>
<g id="lands_2" filter="url(#filter5_d_10_126)">
<path id="Vector_4" d="M459.706 74.1785C459.146 74.0898 458.573 74.2198 458.106 74.5414C457.797 74.8815 457.614 75.3167 457.585 75.7753C457.23 77.7991 457.653 79.8823 458.769 81.6076C459.337 82.454 460.122 83.1328 461.041 83.5736C461.961 84.0143 462.981 84.201 463.997 84.1141C466.472 83.7984 468.297 81.6866 470.572 80.6561C474.08 79.0693 488.975 76.5956 478.671 71.0289C475.12 69.1104 472.826 70.804 470.027 72.0674C466.843 73.6964 463.275 74.4263 459.706 74.1785Z" fill="#3F3D56"/>
<path id="Vector_5" d="M549.956 27.5826C548.753 28.0741 547.747 28.9503 547.094 30.0742C546.793 30.6449 546.723 31.3094 546.899 31.9301C547.074 32.5509 547.482 33.0804 548.037 33.4092C548.486 33.5722 548.962 33.6477 549.44 33.6319L554.332 33.778C556.411 33.8401 559.007 34.2827 559.565 36.2855C559.98 37.7727 559.052 39.6836 560.172 40.7464C560.652 41.1186 561.23 41.344 561.836 41.3955C563.447 41.8095 565.13 41.8638 566.765 41.5546C570.325 40.5998 568.454 38.4273 569.575 36.4928C571.291 33.533 570.994 35.3247 574.016 33.6284C576.248 32.3756 579.133 30.1031 577.27 26.9101C574.03 21.3576 554.737 25.1973 549.956 27.5826Z" fill="#3F3D56"/>
<path id="Vector_6" d="M646.515 24.7911L643.674 25.1702C637.269 26.025 630.826 26.8877 624.657 28.8114C627.327 29.8673 630.129 30.5549 632.985 30.8551C634.558 30.9322 636.119 31.1542 637.651 31.5183C640.376 32.3295 643.122 34.4244 645.755 33.3513C647.387 32.6859 647.92 30.9862 649.272 30.0855C650.206 29.4635 653.747 28.4567 654.143 27.8289C657.344 22.7535 648.975 24.4628 646.515 24.7911Z" fill="#3F3D56"/>
<path id="Vector_7" d="M658.989 37.7021C655.195 39.8238 651.674 42.4021 648.506 45.3793C647.171 46.6339 645.808 48.1944 645.929 50.0223C646.09 52.4516 648.678 53.8608 650.92 54.81L660.001 58.6549C661.103 57.1021 660.094 54.9587 658.956 53.4328C657.817 51.9069 656.464 50.1414 656.967 48.3052C657.541 46.2098 660.096 45.4957 662.239 45.1347C665.729 44.5466 675.146 44.5937 674.015 38.968C672.681 32.3393 662.493 35.7434 658.989 37.7021Z" fill="#3F3D56"/>
</g>
<g id="lands_1" filter="url(#filter6_d_10_126)">
<path id="Vector_8" d="M657.163 412.829C656.298 415.332 656.216 418.281 657.712 420.466C659.39 422.918 662.748 423.832 665.654 423.21C668.547 422.44 671.126 420.782 673.027 418.469C674.766 416.532 676.197 414.338 677.269 411.965C678.765 408.268 679.82 404.407 680.412 400.463L683.232 385.659C683.862 382.35 683.837 372.207 677.756 375.512C676.095 376.415 672.249 383.543 670.508 385.564C667.37 389.208 666.955 392.743 665.303 397.156C663.234 402.685 659.076 407.292 657.163 412.829Z" fill="#3F3D56"/>
<path id="Vector_9" d="M978.345 488.587C976.355 487.81 974.424 486.891 972.567 485.836C970.704 490.956 969.714 496.353 969.637 501.801L983.253 494.096C985.301 492.937 987.623 491.326 987.579 488.973C987.597 488.683 987.537 488.393 987.405 488.133C987.272 487.874 987.072 487.655 986.826 487.5C986.524 487.378 986.194 487.34 985.872 487.388C983.853 487.556 982.012 488.55 980.107 489.24C978.203 489.931 975.975 490.296 974.228 489.271" fill="#3F3D56"/>
<path id="Vector_10" d="M1050.17 493.161C1048.68 493.568 1047.22 494.092 1045.81 494.728C1042.68 496.318 1040.56 499.337 1037.74 501.431C1035.05 503.435 1031.81 504.535 1028.63 505.605C1027.7 506.432 1028.13 508.097 1029.14 508.823C1030.24 509.444 1031.49 509.726 1032.74 509.631C1036.04 509.704 1039.52 509.736 1042.42 508.141C1044.05 507.083 1045.57 505.872 1046.97 504.525C1050.36 501.702 1054.42 499.839 1058.44 498.04C1059.9 497.487 1061.26 496.678 1062.44 495.65C1064.96 493.16 1065.14 489.319 1061.5 488.472C1058.55 487.787 1052.98 492.254 1050.17 493.161Z" fill="#3F3D56"/>
<path id="Vector_11" d="M1081.91 472.43C1082.07 470.717 1081.84 468.989 1081.24 467.377C1080.64 465.765 1079.68 464.31 1078.43 463.124C1078.4 466.551 1078.29 470.203 1076.36 473.037C1074.99 475.057 1072.84 476.421 1071.33 478.345C1069.83 480.268 1069.16 483.318 1070.92 485.006C1072.05 485.864 1073.43 486.338 1074.84 486.356C1078.36 486.77 1082.42 487 1084.89 484.462C1086.23 483.076 1086.89 481.024 1088.53 480.005C1089.14 479.749 1089.69 479.358 1090.13 478.862C1090.8 477.785 1089.73 476.366 1088.52 475.978C1087.3 475.59 1085.97 475.773 1084.75 475.404C1083.53 475.036 1082.42 473.666 1083.04 472.558" fill="#3F3D56"/>
<path id="Vector_12" d="M1025.5 346.759C1023.66 347.208 1021.75 347.32 1019.87 347.092C1016.74 346.516 1014.3 344.159 1011.78 342.226C1005.78 337.654 998.477 335.105 990.933 334.942C984.071 334.813 977.144 336.672 970.404 335.375C970.844 337.824 972.94 339.661 975.176 340.753C977.413 341.845 979.881 342.394 982.128 343.464C985.726 345.194 988.58 348.163 990.167 351.827C990.89 353.517 991.346 355.355 992.442 356.83C994.683 359.845 998.93 360.507 1002.68 360.26C1007.56 359.939 1012.67 358.533 1017.21 360.354C1020.69 361.747 1023.18 364.791 1026.09 367.158C1028.99 369.525 1033.08 371.281 1036.41 369.574C1032.95 368.452 1029.94 366.253 1027.81 363.297C1025.69 360.342 1024.56 356.784 1024.6 353.144C1027.87 353.444 1037.29 353.328 1036.78 347.771C1036.35 343.062 1028.31 346.251 1025.5 346.759Z" fill="#3F3D56"/>
</g>
<g id="australia" filter="url(#filter7_d_10_126)">
<path d="M982.72 385.076C983.3 381.891 986.476 379.079 985.487 375.997C984.803 373.865 982.331 372.812 980.093 372.76C977.855 372.707 975.656 373.374 973.418 373.437C971.961 373.359 970.501 373.38 969.047 373.499C964.605 374.229 961.867 378.885 957.68 380.541C955.134 381.548 952.275 381.355 949.627 382.051C943.617 383.631 939.814 389.31 935.613 393.889C928.825 401.254 919.982 406.411 910.229 408.692C906.812 409.484 903.139 409.99 900.423 412.209C896.826 415.148 895.94 420.186 895.14 424.762C892.929 437.398 889.551 449.801 885.047 461.812L899.318 463.635C902.031 463.981 904.842 464.32 907.457 463.516C909.356 462.8 911.155 461.841 912.81 460.665C919.165 456.719 926.279 454.151 933.689 453.128C937.426 452.615 941.344 452.521 944.851 453.91C948.358 455.299 951.367 458.449 951.661 462.21C953.177 461.738 954.793 461.687 956.337 462.062C957.88 462.438 959.292 463.225 960.423 464.341C962.657 466.618 964.121 469.539 964.606 472.692C964.982 474.644 965.358 476.983 967.17 477.802C968.648 478.471 970.343 477.751 971.96 477.622C977.446 477.183 981.999 483.58 987.392 482.478C993.175 481.297 994.595 472.635 1000.24 470.9C1003.48 469.904 1008.02 471.115 1009.58 468.101C1010.94 465.444 1008.21 462.378 1008.5 459.403C1008.84 455.74 1013.16 454.185 1016.49 452.622C1027.98 447.234 1033.43 431.777 1027.86 420.378C1024.57 413.623 1018.08 408.307 1016.88 400.887C1015.96 395.178 1018.21 388.521 1014.57 384.027C1012.72 381.742 1009.58 380.48 1008.48 377.752C1007.79 376.035 1008.07 374.087 1007.69 372.274C1007.32 370.46 1005.74 368.563 1003.95 369.033C998.747 370.398 997.088 386.458 994.305 390.36C990.073 396.292 981.387 392.384 982.72 385.076Z" fill="#3F3D56"/>
</g>
<g id="lands_3" filter="url(#filter8_d_10_126)">
<path id="Vector_13" d="M886.625 352.827C884.849 352.329 882.909 351.838 881.207 352.55C879.504 353.262 878.51 355.762 879.876 357.002C890.565 356.585 901.319 356.172 911.916 357.623C924.127 359.296 936.21 363.438 948.474 362.22C941.469 360.153 934.348 358.501 927.148 357.271L915.142 354.978C911.921 354.303 908.667 353.8 905.393 353.471C898.544 352.905 893.36 354.716 886.625 352.827Z" fill="#3F3D56"/>
<path id="Vector_14" d="M897.326 315.601C896.438 315.527 895.339 315.464 894.88 316.226C894.442 316.955 894.944 317.918 894.708 318.736C894.386 319.853 892.923 320.138 891.771 319.986C890.619 319.834 889.373 319.47 888.352 320.025C887.834 320.379 887.445 320.891 887.243 321.484C887.041 322.078 887.037 322.721 887.231 323.317C887.649 324.501 888.324 325.577 889.208 326.467C890.717 328.37 892.438 330.095 894.335 331.611C898.009 334.322 902.986 335.629 905.3 339.565C905.626 340.328 906.128 341.004 906.764 341.536C907.875 342.24 909.323 341.705 910.519 341.158L914.711 339.243C915.466 338.971 916.14 338.512 916.671 337.91C917.628 336.611 917.04 334.763 916.236 333.363C915.433 331.963 914.404 330.514 914.576 328.909C914.884 326.048 918.563 324.953 920.076 322.505C921.601 320.037 920.608 316.857 920.784 313.96C920.99 310.574 923.118 306.168 919.694 303.638C916.784 301.487 914.003 303.475 911.914 305.849C907.508 310.856 905.425 316.278 897.326 315.601Z" fill="#3F3D56"/>
<path id="Vector_15" d="M922.771 264.998C924.203 267.739 927.186 269.374 928.747 272.043C930.438 274.935 930.246 278.673 932.081 281.476C933.964 284.353 937.753 285.88 938.808 289.152C939.961 292.724 937.346 297.065 939.431 300.186C939.819 300.696 940.31 301.12 940.871 301.431C941.432 301.741 942.052 301.932 942.691 301.991C943.329 302.049 943.973 301.975 944.582 301.772C945.19 301.568 945.75 301.241 946.225 300.81C947.104 299.853 947.574 298.591 947.536 297.292C947.498 295.993 946.953 294.76 946.019 293.857C944.785 292.731 943.012 292.245 941.982 290.93C941.445 290.171 941.087 289.301 940.936 288.384C940.374 285.739 940.464 282.997 941.198 280.395C941.474 279.734 941.544 279.006 941.399 278.305C940.935 276.956 939.109 276.861 937.827 276.235C934.916 274.814 934.987 270.705 935.495 267.506C935.157 269.636 927.569 266.013 926.775 264.807C925.196 262.41 926.055 257.786 925.743 255.138C922.336 256.78 921.022 261.648 922.771 264.998Z" fill="#3F3D56"/>
<path id="Vector_16" d="M846.335 307.16C844.934 305.593 842.825 303.953 840.947 304.898C839.515 305.619 839.121 307.601 839.682 309.104C840.366 310.563 841.419 311.818 842.737 312.746C846.65 315.972 850.863 318.885 854.276 322.636C860.385 329.348 863.62 338.406 870.264 344.59C871.599 346.024 873.367 346.981 875.298 347.314C877.233 347.494 879.406 346.256 879.629 344.325C879.812 342.734 878.703 341.31 877.619 340.131C875.039 337.325 872.214 334.741 869.778 331.808C868.652 330.681 867.945 329.205 867.773 327.622C867.761 326.043 869.201 324.39 870.731 324.781C868.87 324.305 867.49 321.205 864.759 320.622C862.476 320.135 861.924 321.548 859.208 320.383C854.027 318.161 849.963 311.222 846.335 307.16Z" fill="#3F3D56"/>
<path id="Vector_17" d="M968.067 154.514C966.581 154.072 965.119 153.55 963.69 152.95C959.843 151.796 954.754 154.623 955.266 158.606C955.607 161.253 958.07 163.037 959.43 165.333C961.448 168.737 960.91 173.055 959.85 176.868C959.59 178.048 959.095 179.164 958.394 180.15C957.416 181.19 956.245 182.032 954.948 182.629C949.753 185.542 945.172 189.434 941.458 194.09C941.054 194.52 940.773 195.05 940.643 195.625C940.46 196.97 941.811 197.95 942.576 199.072C944.274 201.563 943.046 204.916 943.214 207.927C943.188 208.352 943.272 208.778 943.456 209.162C943.641 209.546 943.921 209.877 944.269 210.123C945.292 210.643 946.505 209.76 947.06 208.755C948.9 205.421 947.514 200.068 950.967 198.46C951.62 198.156 952.412 198.028 952.847 197.454C953.539 196.544 952.872 195.196 953.222 194.108C953.748 192.475 955.982 192.401 957.697 192.474C960.65 192.597 963.603 192.204 966.421 191.312C967.526 191.049 968.531 190.468 969.309 189.64C970.341 188.352 970.25 186.52 970.043 184.882C969.01 176.717 966.424 168.825 962.424 161.633C965.457 162.02 968.757 162.356 971.374 160.775C972.84 159.89 974.597 157.243 973.871 155.441C972.721 152.592 970.644 154.99 968.067 154.514Z" fill="#3F3D56"/>
</g>
<g id="africa" filter="url(#filter9_d_10_126)">
<path d="M579.218 199.42C579.581 201.367 579.937 203.417 579.299 205.292C578.661 207.167 576.654 208.733 574.759 208.159C573.288 207.713 572.439 206.234 571.394 205.106C565.586 198.836 552.482 202.466 548.894 194.709C547.43 191.543 548.425 187.75 547.426 184.408C546.796 182.476 545.542 180.809 543.862 179.667C542.181 178.525 540.169 177.974 538.141 178.1C536.291 178.367 534.491 178.905 532.798 179.695C521.453 184.238 509.544 187.217 497.396 188.549C495.088 188.69 492.804 189.105 490.594 189.787C485.606 191.595 482.198 196.219 479.773 200.938C477.348 205.657 475.557 210.765 472.306 214.957C468.888 219.363 464.099 222.449 459.632 225.786C457.912 226.895 456.479 228.396 455.452 230.167C454.483 232.156 454.538 234.468 454.613 236.678L455.526 263.522C455.644 266.975 455.791 270.551 457.336 273.641C459.266 277.499 463.078 280.026 465.723 283.435C468.422 286.938 469.827 291.265 469.702 295.685C469.646 297.462 469.47 299.564 470.854 300.68C471.696 301.226 472.681 301.51 473.684 301.494L509.996 304.466C516.383 304.989 523.462 305.849 527.632 310.715C529.6 313.012 531.181 316.315 534.196 316.561C535.489 316.667 536.747 316.136 538.041 316.033C541.304 315.775 544.17 318.252 545.979 320.98C548.717 325.137 549.96 330.103 549.504 335.06C549.207 338.172 548.242 341.197 548.034 344.316C547.243 356.184 557.304 366.495 557.499 378.387C557.613 385.382 554.293 391.918 551.055 398.12C556.28 406.036 552.001 416.577 554.082 425.831C556.055 434.611 563.376 441.484 565.2 450.296C566.035 454.33 566.083 459.295 569.641 461.372C571.201 462.133 572.932 462.48 574.665 462.378C585.121 462.502 595.458 460.149 604.83 455.511C609.229 453.328 613.788 450.07 614.556 445.22C615.175 441.309 613.192 436.934 615.21 433.527C617.589 429.512 623.684 429.83 627.184 426.743C632.863 421.734 628.435 412.183 630.735 404.969C632.804 398.485 639.923 395.041 643.452 389.221C644.84 386.718 645.837 384.017 646.407 381.212C648.023 374.508 649.03 367.671 649.413 360.786C649.507 356.602 649.816 352.426 650.337 348.274C654.142 324.637 677.511 308.808 685.098 286.1C685.822 283.932 686.163 281.043 684.233 279.816C683.089 279.27 681.792 279.134 680.559 279.432L663.82 281.542C661.741 281.804 659.537 282.049 657.628 281.185C655.719 280.322 654.35 277.906 655.363 276.072C658.206 270.922 652.358 264.415 649.76 259.137C642.763 244.927 634.43 231.414 624.875 218.78C624.264 218.131 623.881 217.299 623.784 216.412L628.535 216.57C626.931 210.816 624.285 204.519 618.694 202.414C615.544 201.227 612.055 201.638 608.694 201.821C599.067 202.347 588.746 200.894 579.218 199.42Z" fill="#3F3D56"/>
</g>
<g id="euresia" filter="url(#filter10_d_10_126)">
<path d="M608.702 69.7446C611.221 72.4198 614.044 75.2563 617.689 75.7226C624.127 76.5462 628.756 69.8888 631.703 64.106C631.812 65.5802 632.492 66.9538 633.598 67.9344C634.705 68.9151 636.15 69.4255 637.626 69.3572C639.215 69.0898 640.732 68.4968 642.081 67.6155C654.837 60.6447 669.124 56.9513 683.66 56.867C683.521 55.7659 683.794 54.6521 684.427 53.7405C685.06 52.8289 686.009 52.1841 687.089 51.9306C690.045 51.3447 692.707 53.8999 694.133 56.5541C695.558 59.2084 696.447 62.2849 698.712 64.2717C700.977 66.2585 705.363 66.1719 706.257 63.2949C707.116 60.5328 704.239 58.1773 701.848 56.5489C699.458 54.9205 696.938 51.9065 698.548 49.5033C710.761 46.7998 723.05 44.0861 735.547 43.5487C737.675 43.6228 739.795 43.2575 741.776 42.4758C743.682 41.5405 745.196 39.4175 744.684 37.3573C741.957 37.9984 739.1 37.8127 736.479 36.824C733.858 35.8353 731.59 34.0883 729.966 31.8057C747.307 30.3747 765.751 29.155 781.119 37.3147C782.963 41.2737 773.564 44.5675 776.079 48.1383C776.881 49.2772 778.488 49.4108 779.88 49.4366C790.56 49.6349 801.301 49.8293 811.86 48.217C815.719 47.6278 819.616 46.796 823.49 47.2738C829.943 48.0696 835.462 52.375 841.81 53.7788C844.394 54.3501 847.291 54.3695 849.469 52.8667C851.647 51.3638 852.584 47.9419 850.799 45.9882C856.776 40.1301 866.696 41.582 874.581 44.3866C882.467 47.1912 889.937 51.714 898.283 52.3391C904.267 52.7874 910.335 51.1776 916.249 52.2009C919.965 52.8439 923.424 54.4971 927.056 55.5127C933.925 57.4337 941.192 57.0282 948.324 57.1207C966.522 57.3659 984.521 60.9424 1001.43 67.6732C1003.63 68.3894 1005.64 69.5801 1007.33 71.1612C1008.91 72.8461 1009.71 75.4642 1008.65 77.5126L991.179 74.9596C992.825 78.2004 997.084 78.7527 1000.54 79.8707C1004 80.9887 1007.59 84.8083 1005.51 87.7903C1001.76 86.5971 998.366 90.3439 996.473 93.7913C994.58 97.2386 992.273 101.367 988.345 101.577C984.829 101.765 980.575 98.7708 978.283 101.444C981.45 105.44 984.162 109.775 986.368 114.371C988.633 119.089 990.246 125.034 987.185 129.279C986.704 130.037 985.973 130.603 985.119 130.881C982.619 131.514 980.995 128.456 979.202 126.602C976.943 124.266 973.527 123.605 970.467 122.509C967.408 121.414 964.185 119.259 963.946 116.018C963.797 114.002 964.862 112.127 965.646 110.264C966.964 107.123 967.54 103.72 967.33 100.32C967.158 97.5851 966.392 94.7398 964.427 92.8287C962.463 90.9176 959.071 90.3113 956.962 92.0617C955.978 92.8784 955.19 94.1849 953.912 94.2337C951.654 94.3201 949.921 90.3837 948.104 91.7274C948.317 93.1592 948.02 94.6203 947.265 95.8553C941.845 100.57 933.517 98.5752 926.529 100.241C923.206 101.192 920.025 102.581 917.069 104.372C915.963 104.845 915.022 105.635 914.364 106.642C913.492 108.337 914.454 110.508 915.991 111.635C917.622 112.635 919.454 113.261 921.356 113.466C929.875 115.08 938.519 117.578 945.245 123.05C951.971 128.522 956.382 137.568 954.254 145.973L937.453 129.92C938.091 136.66 938.453 143.42 938.539 150.197C938.648 151.521 938.466 152.852 938.007 154.098C936.809 156.743 933.563 157.633 930.718 158.217C929.927 158.367 929.177 158.683 928.516 159.144C927.856 159.605 927.3 160.201 926.887 160.892C926.473 161.583 926.21 162.353 926.115 163.153C926.02 163.953 926.095 164.763 926.336 165.532C927.346 168.826 929.866 171.395 932.174 173.954C934.481 176.513 936.752 179.422 937.054 182.854C937.356 186.287 934.766 190.156 931.329 189.917C928.723 189.736 926.789 187.404 925.678 185.04C924.566 182.676 923.905 180.042 922.235 178.034C917.18 171.954 905.826 174.559 901.297 168.078C900.143 169.387 899.343 170.97 898.972 172.675C898.601 174.381 898.673 176.153 899.18 177.824C901.286 176.505 904.17 177.73 905.753 179.646C907.336 181.563 908.083 184.02 909.326 186.172C911.003 189.076 913.673 191.651 913.907 194.997C913.845 196.262 913.866 197.53 913.971 198.792C914.386 200.819 916.1 202.275 917.288 203.969C920.052 207.912 919.916 213.328 918.134 217.802C916.352 222.275 913.151 226.013 909.981 229.637C904.443 235.967 898.792 242.26 892.227 247.517C890.354 249.017 888.354 250.492 887.188 252.589C886.021 254.686 885.961 257.63 887.754 259.225C886.471 259.289 884.17 259.92 882.888 259.984C882.436 254.838 882.338 249.667 882.594 244.507C877.531 242.076 872.081 248.586 872.734 254.164C873.387 259.742 877.421 264.218 880.294 269.044C882.394 272.573 883.955 276.688 883.254 280.734C882.553 284.781 878.941 288.514 874.849 288.157C868.342 287.589 865.62 278.247 859.175 277.178C858.607 277.044 858.01 277.103 857.479 277.346C856.523 277.871 856.357 279.151 856.303 280.241C856.039 285.59 855.811 291.152 857.899 296.084C860.954 303.299 868.845 309.358 867.19 317.016C858.272 312.871 853.636 302.87 851.53 293.264C849.425 283.658 849.074 273.573 845.301 264.492C842.435 268.164 836.412 265.128 833.794 261.275C831.312 257.622 829.784 253.397 827.375 249.695C824.967 245.993 821.278 242.678 816.867 242.474C812.241 242.261 808.229 245.435 804.702 248.434C801.801 250.9 798.822 253.463 797.127 256.873C794.659 261.833 795.305 267.682 795.186 273.221C795.057 279.21 793.788 285.528 789.706 289.912C785.625 294.297 778.091 295.824 773.589 291.872C771.239 289.81 770.101 286.728 769.087 283.769C764.201 269.509 760.132 254.982 756.899 240.258C756.143 243.619 753.192 247.95 750.373 245.971C749.74 245.438 749.228 244.778 748.869 244.033C743.611 235.121 733.873 229.776 724.034 226.57C714.195 223.365 703.844 221.87 694.114 218.347C688.661 216.373 683.453 213.779 678.593 210.616C677.353 212.437 676.63 214.558 676.499 216.757C676.367 218.955 676.833 221.148 677.847 223.103C680.005 226.924 684.889 229.135 689.07 227.8C691.23 227.109 693.055 225.61 695.198 224.869C697.342 224.128 700.219 224.492 701.157 226.557C702.054 228.534 700.698 230.925 701.37 232.99C702.395 236.133 707.136 236.375 708.794 239.236C710.028 241.365 709.013 244.191 707.252 245.909C705.49 247.626 703.14 248.568 700.99 249.764C694.014 253.643 689.053 260.265 682.956 265.417C676.86 270.57 668.258 274.331 660.992 271.026C662.724 262.256 652.277 255.818 650.355 247.087C649.722 244.213 650.05 241.161 649.147 238.361C647.839 234.306 644.242 231.518 641.291 228.446C637.712 224.679 634.924 220.233 633.091 215.371C631.258 210.508 630.417 205.328 630.619 200.136C630.778 196.528 631.441 192.861 630.619 189.344C629.797 185.827 626.885 182.423 623.277 182.582C615.036 182.946 604.654 183.559 600.33 176.534C598.787 174.027 598.115 170.354 600.347 168.433C601.92 167.078 604.244 167.206 606.311 167.409L624.879 169.236C629.222 169.663 633.916 170.016 637.643 167.745C641.37 165.475 642.985 159.448 639.534 156.777C637.012 154.825 632.495 154.931 631.762 151.828C631.152 149.244 634.012 146.311 632.467 144.152C631.36 142.603 628.869 143.033 627.36 144.194C625.851 145.355 624.756 147.052 623.067 147.931C620.104 149.473 616.563 148.006 613.376 147.008C610.188 146.011 605.914 145.926 604.368 148.887C602.639 152.198 605.902 156.537 604.186 159.855C601.917 164.242 594.233 161.744 591.047 165.518C587.39 169.848 593.535 176.304 592.302 181.835C590.728 182.615 588.978 182.973 587.224 182.875C585.47 182.776 583.772 182.224 582.294 181.273C580.842 180.285 579.684 178.922 578.944 177.328C578.205 175.734 577.911 173.97 578.094 172.223C578.399 169.734 579.696 167.194 578.827 164.843C578.124 162.942 576.215 161.81 574.441 160.829L556.397 150.858C554.722 153.966 556.84 157.819 559.489 160.153C562.137 162.487 565.455 164.245 567.195 167.317C568.296 169.446 568.543 171.914 567.885 174.218C567.227 176.522 565.715 178.488 563.657 179.715C563.399 179.893 563.105 180.013 562.797 180.067C562.488 180.121 562.171 180.107 561.868 180.027C561.58 179.858 561.329 179.633 561.13 179.365C560.931 179.097 560.787 178.792 560.708 178.467C557.524 170.32 552.744 162.287 545.102 158.031C537.46 153.775 526.479 154.65 521.468 161.819C520.277 163.522 519.479 165.463 518.442 167.264C512.933 176.829 501.122 181.359 490.088 181.063C489.008 181.122 487.935 180.87 486.995 180.336C485.211 179.104 485.292 176.491 485.565 174.341L486.723 165.216C486.956 163.384 487.293 161.359 488.743 160.215C490.787 158.603 493.736 159.62 496.339 159.583C498.311 159.491 500.207 158.794 501.771 157.588C503.334 156.381 504.488 154.724 505.077 152.839C505.603 150.936 505.6 148.926 505.067 147.025C504.535 145.123 503.494 143.403 502.057 142.05C500.863 140.929 499.262 139.522 499.892 138.011C500.144 137.593 500.484 137.235 500.888 136.963C501.293 136.69 501.752 136.51 502.234 136.434C506.91 135.076 511.851 134.72 516.449 133.118C521.047 131.516 525.506 128.238 526.595 123.492C526.929 122.037 527.081 120.275 528.387 119.554C529.043 119.278 529.747 119.134 530.458 119.131C532.951 118.777 535.221 117.502 536.821 115.557C538.421 113.613 539.235 111.14 539.102 108.626C541.306 107.086 544.393 108.218 546.525 109.856C548.657 111.494 550.539 113.658 553.133 114.364C557.967 115.679 562.639 111.399 567.649 111.379C569.756 111.371 571.937 112.116 573.919 111.402C575.928 110.678 577.128 108.677 578.67 107.2C580.212 105.722 582.918 104.821 584.342 106.413L583.13 97.4305C585.572 98.0474 588.118 98.1348 590.596 97.6867C593.075 97.2385 595.429 96.2653 597.5 94.8324L581.828 89.5371C581.283 89.4008 580.779 89.1317 580.363 88.7535C579.223 87.5266 580.355 85.6147 581.282 84.22C583.498 80.8836 583.87 75.3877 580.225 73.7267C577.737 72.5929 574.882 73.9538 572.494 75.2853L561.055 81.6633C560.692 83.8375 563.351 85.0698 564.998 86.5343C565.995 87.4204 566.7 88.5873 567.022 89.8817C567.344 91.1761 567.266 92.5375 566.8 93.7871C566.333 95.0366 565.5 96.1159 564.409 96.8832C563.318 97.6504 562.021 98.0698 560.687 98.0861C561.44 99.0654 561.964 100.202 562.218 101.41C562.473 102.619 562.452 103.87 562.158 105.07L554.462 105.624C553.598 105.797 552.701 105.622 551.966 105.136C551.143 104.405 551.254 103.124 551.063 102.04C550.603 99.4231 548.041 97.589 545.425 97.1187C542.81 96.6484 540.135 97.2512 537.545 97.8464C536.446 98.2421 535.238 98.2143 534.158 97.7683C533.539 97.3659 533.068 96.7718 532.818 96.0768C531.683 93.3241 532.744 90.0885 534.567 87.7344C536.391 85.3803 538.887 83.6594 541.129 81.6996C546.49 76.9958 550.428 70.8865 552.5 64.062C556.737 62.2869 561.123 59.875 565.36 58.0998C571.892 54.7927 579.217 53.3735 586.511 54.0017L600.859 54.2758C605.107 54.3569 609.47 54.4609 613.398 56.0804C617.326 57.6999 620.777 61.2026 621.049 65.4427C621.13 65.9228 621.089 66.4157 620.928 66.8753C620.767 67.3348 620.492 67.746 620.129 68.0702C619.574 68.3729 618.946 68.5145 618.315 68.479C614.353 68.6183 612.664 69.6054 608.702 69.7446Z" fill="#3F3D56"/>
</g>
<g id="Vector_18" filter="url(#filter11_d_10_126)">
<path d="M494.339 114.712C494.899 114.181 495.303 113.507 495.505 112.762C495.707 112.017 495.699 111.23 495.484 110.489C494.119 109.963 492.636 109.828 491.199 110.099C489.762 110.37 488.43 111.037 487.352 112.025C486.502 112.885 485.769 113.853 485.173 114.905C483.288 117.981 481.62 121.655 482.713 125.094C482.802 125.469 482.965 125.822 483.192 126.133C483.42 126.444 483.707 126.707 484.037 126.905C484.527 127.102 485.055 127.185 485.581 127.147C487.658 127.145 489.733 127.017 491.795 126.765C493.061 126.61 494.532 126.252 495.021 125.075C495.664 123.526 494.107 121.774 494.561 120.16C494.86 119.438 495.312 118.79 495.887 118.261C496.172 117.995 496.391 117.666 496.527 117.3C496.663 116.934 496.711 116.542 496.669 116.154C496.486 115.396 495.326 114.967 494.909 115.625" fill="#3F3D56"/>
</g>
<g id="Vector_19" filter="url(#filter12_d_10_126)">
<path d="M505.109 100.749C503.264 100.325 501.362 100.206 499.478 100.395C499.062 100.383 498.649 100.476 498.278 100.668C497.92 100.932 497.659 101.309 497.539 101.738C497.141 103.015 497.239 104.395 497.813 105.603C498.387 106.811 499.395 107.759 500.636 108.257C501.312 108.413 501.96 108.673 502.556 109.029C504.149 110.264 503.134 112.79 503.435 114.783C503.774 117.021 505.94 118.899 505.543 121.128C505.23 122.883 503.355 124.273 503.657 126.031C503.973 127.871 506.309 128.424 508.17 128.572C509.249 128.761 510.36 128.633 511.368 128.205C512.379 127.514 513.098 126.473 513.386 125.283C514.148 123.015 514.468 120.621 514.329 118.231C514.321 117.145 514.048 116.076 513.534 115.119C512.974 114.36 512.352 113.649 511.676 112.991C508.109 108.842 511.865 102.653 505.109 100.749Z" fill="#3F3D56"/>
</g>
</g>
<defs>
<filter id="filter0_d_10_126" x="21.0947" y="43.0067" width="394.271" height="574.446" filterUnits="userSpaceOnUse" color-interpolation-filters="sRGB">
<feFlood flood-opacity="0" result="BackgroundImageFix"/>
<feColorMatrix in="SourceAlpha" type="matrix" values="0 0 0 0 0 0 0 0 0 0 0 0 0 0 0 0 0 0 127 0" result="hardAlpha"/>
<feOffset dy="40"/>
<feGaussianBlur stdDeviation="15"/>
<feComposite in2="hardAlpha" operator="out"/>
<feColorMatrix type="matrix" values="0 0 0 0 0.247059 0 0 0 0 0.239216 0 0 0 0 0.337255 0 0 0 0.47 0"/>
<feBlend mode="normal" in2="BackgroundImageFix" result="effect1_dropShadow_10_126"/>
<feBlend mode="normal" in="SourceGraphic" in2="effect1_dropShadow_10_126" result="shape"/>
</filter>
<filter id="filter1_d_10_126" x="216.779" y="33.3992" width="80.0695" height="79.9574" filterUnits="userSpaceOnUse" color-interpolation-filters="sRGB">
<feFlood flood-opacity="0" result="BackgroundImageFix"/>
<feColorMatrix in="SourceAlpha" type="matrix" values="0 0 0 0 0 0 0 0 0 0 0 0 0 0 0 0 0 0 127 0" result="hardAlpha"/>
<feOffset dy="40"/>
<feGaussianBlur stdDeviation="15"/>
<feComposite in2="hardAlpha" operator="out"/>
<feColorMatrix type="matrix" values="0 0 0 0 0.247059 0 0 0 0 0.239216 0 0 0 0 0.337255 0 0 0 0.47 0"/>
<feBlend mode="normal" in2="BackgroundImageFix" result="effect1_dropShadow_10_126"/>
<feBlend mode="normal" in="SourceGraphic" in2="effect1_dropShadow_10_126" result="shape"/>
</filter>
<filter id="filter2_d_10_126" x="242.245" y="30.1115" width="69.1225" height="74.9989" filterUnits="userSpaceOnUse" color-interpolation-filters="sRGB">
<feFlood flood-opacity="0" result="BackgroundImageFix"/>
<feColorMatrix in="SourceAlpha" type="matrix" values="0 0 0 0 0 0 0 0 0 0 0 0 0 0 0 0 0 0 127 0" result="hardAlpha"/>
<feOffset dy="40"/>
<feGaussianBlur stdDeviation="15"/>
<feComposite in2="hardAlpha" operator="out"/>
<feColorMatrix type="matrix" values="0 0 0 0 0.247059 0 0 0 0 0.239216 0 0 0 0 0.337255 0 0 0 0.47 0"/>
<feBlend mode="normal" in2="BackgroundImageFix" result="effect1_dropShadow_10_126"/>
<feBlend mode="normal" in="SourceGraphic" in2="effect1_dropShadow_10_126" result="shape"/>
</filter>
<filter id="filter3_d_10_126" x="279.581" y="19.2966" width="130.382" height="94.1973" filterUnits="userSpaceOnUse" color-interpolation-filters="sRGB">
<feFlood flood-opacity="0" result="BackgroundImageFix"/>
<feColorMatrix in="SourceAlpha" type="matrix" values="0 0 0 0 0 0 0 0 0 0 0 0 0 0 0 0 0 0 127 0" result="hardAlpha"/>
<feOffset dy="40"/>
<feGaussianBlur stdDeviation="15"/>
<feComposite in2="hardAlpha" operator="out"/>
<feColorMatrix type="matrix" values="0 0 0 0 0.247059 0 0 0 0 0.239216 0 0 0 0 0.337255 0 0 0 0.47 0"/>
<feBlend mode="normal" in2="BackgroundImageFix" result="effect1_dropShadow_10_126"/>
<feBlend mode="normal" in="SourceGraphic" in2="effect1_dropShadow_10_126" result="shape"/>
</filter>
<filter id="filter4_d_10_126" x="329.28" y="18.7109" width="189.229" height="146.778" filterUnits="userSpaceOnUse" color-interpolation-filters="sRGB">
<feFlood flood-opacity="0" result="BackgroundImageFix"/>
<feColorMatrix in="SourceAlpha" type="matrix" values="0 0 0 0 0 0 0 0 0 0 0 0 0 0 0 0 0 0 127 0" result="hardAlpha"/>
<feOffset dy="40"/>
<feGaussianBlur stdDeviation="15"/>
<feComposite in2="hardAlpha" operator="out"/>
<feColorMatrix type="matrix" values="0 0 0 0 0.247059 0 0 0 0 0.239216 0 0 0 0 0.337255 0 0 0 0.47 0"/>
<feBlend mode="normal" in2="BackgroundImageFix" result="effect1_dropShadow_10_126"/>
<feBlend mode="normal" in="SourceGraphic" in2="effect1_dropShadow_10_126" result="shape"/>
</filter>
<filter id="filter5_d_10_126" x="427.463" y="24.0537" width="276.645" height="130.081" filterUnits="userSpaceOnUse" color-interpolation-filters="sRGB">
<feFlood flood-opacity="0" result="BackgroundImageFix"/>
<feColorMatrix in="SourceAlpha" type="matrix" values="0 0 0 0 0 0 0 0 0 0 0 0 0 0 0 0 0 0 127 0" result="hardAlpha"/>
<feOffset dy="40"/>
<feGaussianBlur stdDeviation="15"/>
<feComposite in2="hardAlpha" operator="out"/>
<feColorMatrix type="matrix" values="0 0 0 0 0.247059 0 0 0 0 0.239216 0 0 0 0 0.337255 0 0 0 0.47 0"/>
<feBlend mode="normal" in2="BackgroundImageFix" result="effect1_dropShadow_10_126"/>
<feBlend mode="normal" in="SourceGraphic" in2="effect1_dropShadow_10_126" result="shape"/>
</filter>
<filter id="filter6_d_10_126" x="626.544" y="334.936" width="493.792" height="244.722" filterUnits="userSpaceOnUse" color-interpolation-filters="sRGB">
<feFlood flood-opacity="0" result="BackgroundImageFix"/>
<feColorMatrix in="SourceAlpha" type="matrix" values="0 0 0 0 0 0 0 0 0 0 0 0 0 0 0 0 0 0 127 0" result="hardAlpha"/>
<feOffset dy="40"/>
<feGaussianBlur stdDeviation="15"/>
<feComposite in2="hardAlpha" operator="out"/>
<feColorMatrix type="matrix" values="0 0 0 0 0.247059 0 0 0 0 0.239216 0 0 0 0 0.337255 0 0 0 0.47 0"/>
<feBlend mode="normal" in2="BackgroundImageFix" result="effect1_dropShadow_10_126"/>
<feBlend mode="normal" in="SourceGraphic" in2="effect1_dropShadow_10_126" result="shape"/>
</filter>
<filter id="filter7_d_10_126" x="855.047" y="368.96" width="205.012" height="183.646" filterUnits="userSpaceOnUse" color-interpolation-filters="sRGB">
<feFlood flood-opacity="0" result="BackgroundImageFix"/>
<feColorMatrix in="SourceAlpha" type="matrix" values="0 0 0 0 0 0 0 0 0 0 0 0 0 0 0 0 0 0 127 0" result="hardAlpha"/>
<feOffset dy="40"/>
<feGaussianBlur stdDeviation="15"/>
<feComposite in2="hardAlpha" operator="out"/>
<feColorMatrix type="matrix" values="0 0 0 0 0.247059 0 0 0 0 0.239216 0 0 0 0 0.337255 0 0 0 0.47 0"/>
<feBlend mode="normal" in2="BackgroundImageFix" result="effect1_dropShadow_10_126"/>
<feBlend mode="normal" in="SourceGraphic" in2="effect1_dropShadow_10_126" result="shape"/>
</filter>
<filter id="filter8_d_10_126" x="809.437" y="152.69" width="194.603" height="279.751" filterUnits="userSpaceOnUse" color-interpolation-filters="sRGB">
<feFlood flood-opacity="0" result="BackgroundImageFix"/>
<feColorMatrix in="SourceAlpha" type="matrix" values="0 0 0 0 0 0 0 0 0 0 0 0 0 0 0 0 0 0 127 0" result="hardAlpha"/>
<feOffset dy="40"/>
<feGaussianBlur stdDeviation="15"/>
<feComposite in2="hardAlpha" operator="out"/>
<feColorMatrix type="matrix" values="0 0 0 0 0.247059 0 0 0 0 0.239216 0 0 0 0 0.337255 0 0 0 0.47 0"/>
<feBlend mode="normal" in2="BackgroundImageFix" result="effect1_dropShadow_10_126"/>
<feBlend mode="normal" in="SourceGraphic" in2="effect1_dropShadow_10_126" result="shape"/>
</filter>
<filter id="filter9_d_10_126" x="424.576" y="178.082" width="291.094" height="354.313" filterUnits="userSpaceOnUse" color-interpolation-filters="sRGB">
<feFlood flood-opacity="0" result="BackgroundImageFix"/>
<feColorMatrix in="SourceAlpha" type="matrix" values="0 0 0 0 0 0 0 0 0 0 0 0 0 0 0 0 0 0 127 0" result="hardAlpha"/>
<feOffset dy="40"/>
<feGaussianBlur stdDeviation="15"/>
<feComposite in2="hardAlpha" operator="out"/>
<feColorMatrix type="matrix" values="0 0 0 0 0.247059 0 0 0 0 0.239216 0 0 0 0 0.337255 0 0 0 0.47 0"/>
<feBlend mode="normal" in2="BackgroundImageFix" result="effect1_dropShadow_10_126"/>
<feBlend mode="normal" in="SourceGraphic" in2="effect1_dropShadow_10_126" result="shape"/>
</filter>
<filter id="filter10_d_10_126" x="455.416" y="30.7684" width="583.715" height="356.248" filterUnits="userSpaceOnUse" color-interpolation-filters="sRGB">
<feFlood flood-opacity="0" result="BackgroundImageFix"/>
<feColorMatrix in="SourceAlpha" type="matrix" values="0 0 0 0 0 0 0 0 0 0 0 0 0 0 0 0 0 0 127 0" result="hardAlpha"/>
<feOffset dy="40"/>
<feGaussianBlur stdDeviation="15"/>
<feComposite in2="hardAlpha" operator="out"/>
<feColorMatrix type="matrix" values="0 0 0 0 0.247059 0 0 0 0 0.239216 0 0 0 0 0.337255 0 0 0 0.47 0"/>
<feBlend mode="normal" in2="BackgroundImageFix" result="effect1_dropShadow_10_126"/>
<feBlend mode="normal" in="SourceGraphic" in2="effect1_dropShadow_10_126" result="shape"/>
</filter>
<filter id="filter11_d_10_126" x="452.365" y="109.963" width="74.3185" height="87.1933" filterUnits="userSpaceOnUse" color-interpolation-filters="sRGB">
<feFlood flood-opacity="0" result="BackgroundImageFix"/>
<feColorMatrix in="SourceAlpha" type="matrix" values="0 0 0 0 0 0 0 0 0 0 0 0 0 0 0 0 0 0 127 0" result="hardAlpha"/>
<feOffset dy="40"/>
<feGaussianBlur stdDeviation="15"/>
<feComposite in2="hardAlpha" operator="out"/>
<feColorMatrix type="matrix" values="0 0 0 0 0.247059 0 0 0 0 0.239216 0 0 0 0 0.337255 0 0 0 0.47 0"/>
<feBlend mode="normal" in2="BackgroundImageFix" result="effect1_dropShadow_10_126"/>
<feBlend mode="normal" in="SourceGraphic" in2="effect1_dropShadow_10_126" result="shape"/>
</filter>
<filter id="filter12_d_10_126" x="467.298" y="100.308" width="77.0628" height="98.349" filterUnits="userSpaceOnUse" color-interpolation-filters="sRGB">
<feFlood flood-opacity="0" result="BackgroundImageFix"/>
<feColorMatrix in="SourceAlpha" type="matrix" values="0 0 0 0 0 0 0 0 0 0 0 0 0 0 0 0 0 0 127 0" result="hardAlpha"/>
<feOffset dy="40"/>
<feGaussianBlur stdDeviation="15"/>
<feComposite in2="hardAlpha" operator="out"/>
<feColorMatrix type="matrix" values="0 0 0 0 0.247059 0 0 0 0 0.239216 0 0 0 0 0.337255 0 0 0 0.47 0"/>
<feBlend mode="normal" in2="BackgroundImageFix" result="effect1_dropShadow_10_126"/>
<feBlend mode="normal" in="SourceGraphic" in2="effect1_dropShadow_10_126" result="shape"/>
</filter>
</defs>
</svg>
