<svg width="457" height="397" viewBox="0 0 457 397" fill="none" xmlns="http://www.w3.org/2000/svg">
<g id="undraw_raining_re_4b55 1" clip-path="url(#clip0_25_177)">
<path id="Vector" d="M271.956 396.435H263.604C262.554 396.434 261.547 396.016 260.804 395.274C260.062 394.532 259.644 393.526 259.643 392.476V322.899C259.644 321.85 260.062 320.843 260.804 320.101C261.547 319.359 262.554 318.941 263.604 318.94H271.956C273.006 318.941 274.013 319.359 274.755 320.101C275.498 320.843 275.915 321.85 275.917 322.899V392.476C275.915 393.526 275.498 394.532 274.755 395.274C274.013 396.016 273.006 396.434 271.956 396.435Z" fill="#F96167"/>
<path id="Vector_2" d="M254.306 396.435H245.954C244.904 396.434 243.897 396.016 243.155 395.274C242.412 394.532 241.994 393.526 241.993 392.476V322.899C241.994 321.85 242.412 320.843 243.155 320.101C243.897 319.359 244.904 318.941 245.954 318.94H254.306C255.356 318.941 256.363 319.359 257.105 320.101C257.848 320.843 258.265 321.85 258.267 322.899V392.476C258.265 393.526 257.848 394.532 257.105 395.274C256.363 396.016 255.356 396.434 254.306 396.435Z" fill="#F96167"/>
<path id="Vector_3" d="M277.562 74.2191C277.562 74.2191 281.437 66.0241 275.175 63.8935C268.913 61.7628 269.363 70.3457 269.363 70.3457L276.981 74.8644" fill="#3F3D56"/>
<path id="Vector_4" d="M145.982 98.331L133.004 108.848C133.004 108.848 327.708 174.254 349.915 187.229L347.723 168.901L329.327 146.505L293.693 123.783L236.173 105.897L173.488 83.3643L145.982 98.331Z" fill="#F96167"/>
<path id="Vector_5" d="M245.143 124.484L201.093 234.376C201.093 234.376 194.053 252.573 209.611 256.061C218.966 258.157 223.911 252.485 226.367 247.628C228.99 242.44 221.869 237.879 218.309 242.476C218.252 242.55 218.194 242.626 218.136 242.704C218.049 242.82 208.716 250.059 208.721 240.152C208.744 237.868 209.218 235.611 210.116 233.51L253.406 129.584L245.143 124.484Z" fill="#3F3D56"/>
<path id="Vector_6" d="M273.091 69.555C273.091 69.555 260.695 67.7459 253.724 63.8081C253.724 63.8081 177.222 47.5322 133.051 108.25C133.051 108.25 340.993 156.364 349.962 186.631C349.962 186.631 363.013 130.619 293.878 78.916C293.878 78.916 276.964 73.0405 273.091 69.555Z" fill="#3F3D56"/>
<g id="drops_4">
<path id="Vector_7" d="M242.013 60.9957C240.322 68.0726 238.187 69.757 236.164 69.2741C234.141 68.7913 232.997 66.324 234.688 59.2472C236.379 52.1704 242.286 43.6467 242.286 43.6467C242.286 43.6467 243.704 53.9189 242.013 60.9957Z" fill="#CCCCCC"/>
<path id="Vector_8" d="M249.414 10.5863C248.382 14.9046 247.079 15.9323 245.845 15.6377C244.611 15.3431 243.913 13.8376 244.944 9.51933C245.976 5.20109 249.581 0 249.581 0C249.581 0 250.446 6.2681 249.414 10.5863Z" fill="#CCCCCC"/>
<path id="Vector_9" d="M152.61 282.71C150.919 289.787 148.783 291.472 146.76 290.989C144.738 290.506 143.594 288.039 145.284 280.962C146.975 273.885 152.883 265.361 152.883 265.361C152.883 265.361 154.301 275.633 152.61 282.71Z" fill="#CCCCCC"/>
<path id="Vector_10" d="M127.757 253.228C126.726 257.546 125.423 258.574 124.188 258.279C122.954 257.985 122.256 256.479 123.288 252.161C124.319 247.843 127.924 242.642 127.924 242.642C127.924 242.642 128.789 248.91 127.757 253.228Z" fill="#CCCCCC"/>
<path id="Vector_11" d="M114.698 195.043C113.007 202.119 110.872 203.804 108.849 203.321C106.826 202.838 105.682 200.371 107.373 193.294C109.064 186.217 114.972 177.693 114.972 177.693C114.972 177.693 116.389 187.966 114.698 195.043Z" fill="#CCCCCC"/>
<path id="Vector_12" d="M89.8459 165.56C88.8143 169.878 87.511 170.906 86.2767 170.612C85.0424 170.317 84.3444 168.811 85.3761 164.493C86.4078 160.175 90.0127 154.974 90.0127 154.974C90.0127 154.974 90.8776 161.242 89.8459 165.56Z" fill="#CCCCCC"/>
</g>
<g id="drops_3">
<path id="Vector_13" d="M205.799 76.8325C204.108 83.9093 201.973 85.5937 199.95 85.1108C197.927 84.628 196.783 82.1607 198.474 75.0839C200.165 68.0071 206.072 59.4834 206.072 59.4834C206.072 59.4834 207.49 69.7556 205.799 76.8325Z" fill="#CCCCCC"/>
<path id="Vector_14" d="M208.673 149.724C207.642 154.042 206.338 155.07 205.104 154.775C203.87 154.48 203.172 152.975 204.203 148.657C205.235 144.338 208.84 139.137 208.84 139.137C208.84 139.137 209.705 145.405 208.673 149.724Z" fill="#CCCCCC"/>
<path id="Vector_15" d="M286.149 100.588C284.458 107.664 282.323 109.349 280.3 108.866C278.277 108.383 277.133 105.916 278.824 98.839C280.515 91.7622 286.422 83.2385 286.422 83.2385C286.422 83.2385 287.84 93.5107 286.149 100.588Z" fill="#CCCCCC"/>
<path id="Vector_16" d="M321.797 190.518C320.107 197.595 317.971 199.279 315.948 198.796C313.925 198.313 312.781 195.846 314.472 188.769C316.163 181.692 322.071 173.169 322.071 173.169C322.071 173.169 323.488 183.441 321.797 190.518Z" fill="#CCCCCC"/>
<path id="Vector_17" d="M406.674 90.9724C404.983 98.0493 402.847 99.7337 400.825 99.2508C398.802 98.768 397.658 96.3007 399.349 89.2239C401.039 82.1471 406.947 73.6234 406.947 73.6234C406.947 73.6234 408.365 83.8956 406.674 90.9724Z" fill="#CCCCCC"/>
<path id="Vector_18" d="M368.762 271.398C367.072 278.475 364.936 280.16 362.913 279.677C360.89 279.194 359.746 276.727 361.437 269.65C363.128 262.573 369.036 254.049 369.036 254.049C369.036 254.049 370.453 264.321 368.762 271.398Z" fill="#CCCCCC"/>
</g>
<g id="drops_1">
<path id="Vector_19" d="M217.161 31.5134C216.129 35.8317 214.826 36.8595 213.592 36.5649C212.357 36.2702 211.659 34.7647 212.691 30.4465C213.723 26.1282 217.328 20.9271 217.328 20.9271C217.328 20.9271 218.193 27.1952 217.161 31.5134Z" fill="#CCCCCC"/>
<path id="Vector_20" d="M160.011 232.301C158.979 236.619 157.676 237.647 156.441 237.352C155.207 237.058 154.509 235.552 155.541 231.234C156.572 226.916 160.177 221.715 160.177 221.715C160.177 221.715 161.042 227.983 160.011 232.301Z" fill="#CCCCCC"/>
<path id="Vector_21" d="M119.225 71.7421C117.534 78.8189 115.398 80.5033 113.376 80.0205C111.353 79.5376 110.209 77.0703 111.9 69.9935C113.59 62.9167 119.498 54.393 119.498 54.393C119.498 54.393 120.916 64.6652 119.225 71.7421Z" fill="#CCCCCC"/>
<path id="Vector_22" d="M122.099 144.633C121.067 148.951 119.764 149.979 118.53 149.684C117.295 149.39 116.597 147.884 117.629 143.566C118.661 139.248 122.266 134.047 122.266 134.047C122.266 134.047 123.131 140.315 122.099 144.633Z" fill="#CCCCCC"/>
<path id="Vector_23" d="M201.272 200.133C199.582 207.21 197.446 208.894 195.423 208.411C193.4 207.928 192.256 205.461 193.947 198.384C195.638 191.308 201.546 182.784 201.546 182.784C201.546 182.784 202.963 193.056 201.272 200.133Z" fill="#CCCCCC"/>
<path id="Vector_24" d="M373.289 148.098C371.598 155.175 369.463 156.859 367.44 156.376C365.417 155.893 364.273 153.426 365.964 146.349C367.655 139.273 373.563 130.749 373.563 130.749C373.563 130.749 374.98 141.021 373.289 148.098Z" fill="#CCCCCC"/>
<path id="Vector_25" d="M453.639 171.853C451.948 178.93 449.813 180.614 447.79 180.131C445.767 179.649 444.623 177.181 446.314 170.104C448.005 163.028 453.912 154.504 453.912 154.504C453.912 154.504 455.33 164.776 453.639 171.853Z" fill="#CCCCCC"/>
</g>
<g id="drops_2">
<path id="Vector_26" d="M261.297 71.1053C260.265 75.4236 258.962 76.4513 257.728 76.1567C256.493 75.8621 255.795 74.3566 256.827 70.0383C257.859 65.7201 261.464 60.519 261.464 60.519C261.464 60.519 262.328 66.7871 261.297 71.1053Z" fill="#CCCCCC"/>
<path id="Vector_27" d="M326.324 67.2173C324.633 74.2941 322.498 75.9785 320.475 75.4957C318.452 75.0128 317.308 72.5455 318.999 65.4687C320.689 58.3919 326.597 49.8682 326.597 49.8682C326.597 49.8682 328.015 60.1404 326.324 67.2173Z" fill="#CCCCCC"/>
<path id="Vector_28" d="M329.198 140.108C328.166 144.427 326.863 145.454 325.629 145.16C324.395 144.865 323.697 143.36 324.728 139.041C325.76 134.723 329.365 129.522 329.365 129.522C329.365 129.522 330.23 135.79 329.198 140.108Z" fill="#CCCCCC"/>
<path id="Vector_29" d="M381.822 61.4902C380.79 65.8084 379.487 66.8362 378.253 66.5416C377.018 66.2469 376.32 64.7414 377.352 60.4232C378.384 56.1049 381.989 50.9038 381.989 50.9038C381.989 50.9038 382.853 57.172 381.822 61.4902Z" fill="#CCCCCC"/>
<path id="Vector_30" d="M376.163 220.989C375.132 225.307 373.828 226.335 372.594 226.04C371.36 225.746 370.662 224.24 371.693 219.922C372.725 215.604 376.33 210.403 376.33 210.403C376.33 210.403 377.195 216.671 376.163 220.989Z" fill="#CCCCCC"/>
<path id="Vector_31" d="M428.787 142.371C427.755 146.689 426.452 147.717 425.218 147.422C423.983 147.127 423.285 145.622 424.317 141.304C425.349 136.985 428.954 131.784 428.954 131.784C428.954 131.784 429.819 138.052 428.787 142.371Z" fill="#CCCCCC"/>
</g>
<path id="Vector_32" d="M264.759 242.727C280.697 242.727 293.617 229.813 293.617 213.882C293.617 197.951 280.697 185.036 264.759 185.036C248.821 185.036 235.901 197.951 235.901 213.882C235.901 229.813 248.821 242.727 264.759 242.727Z" fill="#F96167"/>
<path id="Vector_33" d="M241.538 225.991C239.667 225.939 237.339 225.873 235.546 224.564C235.012 224.158 234.573 223.64 234.26 223.047C233.948 222.454 233.768 221.799 233.735 221.129C233.703 220.653 233.781 220.176 233.964 219.735C234.146 219.295 234.429 218.902 234.788 218.588C235.725 217.797 237.093 217.611 238.567 218.045L237.04 206.888L238.161 206.734L239.956 219.851L239.02 219.421C237.935 218.924 236.445 218.67 235.519 219.452C235.291 219.657 235.114 219.911 235.001 220.195C234.888 220.479 234.842 220.785 234.866 221.089C234.894 221.588 235.028 222.075 235.261 222.517C235.493 222.959 235.818 223.345 236.214 223.651C237.609 224.67 239.465 224.801 241.57 224.86L241.538 225.991Z" fill="#2F2E41"/>
<path id="Vector_34" d="M250.733 207.85H244.638V208.981H250.733V207.85Z" fill="#2F2E41"/>
<path id="Vector_35" d="M266.778 184.951C266.991 181.541 267.933 178.217 269.543 175.203C271.152 172.189 273.391 169.556 276.107 167.482C278.914 165.405 282.152 163.987 285.582 163.333C289.012 162.679 292.546 162.806 295.92 163.705C299.273 164.576 302.384 166.196 305.019 168.444C307.654 170.691 309.744 173.507 311.131 176.679C312.528 179.828 313.225 183.242 313.174 186.686C313.02 190.431 312.09 194.104 310.441 197.47C308.739 201.176 306.593 204.653 304.729 208.276C302.893 211.848 301.309 215.544 299.989 219.337C297.302 227.066 295.717 235.134 295.28 243.304C294.587 256.183 295.82 274.985 310.366 279.928C314.064 281.185 318.055 281.419 321.933 281.408C326.017 281.458 330.091 280.981 334.053 279.989C340.92 278.157 347.439 273.853 350.364 267.166C351.039 265.622 351.491 263.99 351.707 262.32C351.768 261.862 351.273 261.476 350.858 261.471C350.635 261.477 350.422 261.568 350.264 261.726C350.106 261.884 350.015 262.096 350.01 262.32C349.062 269.445 343.122 274.909 336.673 277.366C332.905 278.731 328.946 279.496 324.94 279.634C320.953 279.836 316.813 279.805 312.909 278.888C309.434 278.136 306.272 276.339 303.848 273.739C301.687 271.252 300.075 268.338 299.118 265.186C296.822 258.181 296.581 250.479 296.984 243.178C297.441 235.035 299.06 226.999 301.793 219.314C303.173 215.433 304.838 211.66 306.774 208.025C308.666 204.47 310.766 201.015 312.359 197.309C313.915 193.903 314.77 190.219 314.874 186.476C314.887 183.019 314.198 179.596 312.851 176.412C311.526 173.216 309.54 170.336 307.023 167.961C304.506 165.586 301.515 163.771 298.246 162.633C294.921 161.476 291.39 161.027 287.88 161.314C284.371 161.602 280.96 162.619 277.867 164.302C274.925 165.993 272.347 168.249 270.283 170.942C268.218 173.634 266.708 176.709 265.84 179.988C265.418 181.612 265.163 183.275 265.081 184.951C265.025 186.042 266.722 186.039 266.778 184.951Z" fill="#2F2E41"/>
<path id="Vector_36" d="M272.422 185.547C272.885 182.4 274.462 179.523 276.867 177.44C279.424 175.298 282.701 174.211 286.031 174.4C287.123 174.454 287.12 172.757 286.031 172.703C282.412 172.54 278.858 173.712 276.047 175.997C273.236 178.282 271.363 181.52 270.785 185.096C270.621 186.164 272.257 186.624 272.422 185.547Z" fill="#2F2E41"/>
<path id="Vector_37" d="M272.146 187.355L264.086 184.695C263.374 184.46 262.784 183.951 262.446 183.282C262.109 182.612 262.051 181.835 262.287 181.123C262.522 180.411 263.031 179.821 263.701 179.484C264.371 179.146 265.148 179.089 265.86 179.324L273.92 181.984C274.632 182.219 275.222 182.728 275.56 183.398C275.897 184.068 275.955 184.844 275.719 185.556C275.484 186.269 274.976 186.858 274.305 187.195C273.635 187.533 272.858 187.59 272.146 187.355Z" fill="#2F2E41"/>
<path id="Vector_38" d="M285.209 348.038H232.139C231.163 348.036 230.229 347.649 229.539 346.96C228.85 346.27 228.462 345.336 228.461 344.361V336.013C228.462 335.039 228.85 334.104 229.539 333.415C230.229 332.726 231.163 332.338 232.139 332.337H285.209C286.184 332.338 287.119 332.726 287.808 333.415C288.498 334.104 288.886 335.039 288.887 336.013V344.361C288.886 345.336 288.498 346.27 287.808 346.96C287.119 347.649 286.184 348.036 285.209 348.038Z" fill="#CCCCCC"/>
<path id="Vector_39" d="M296.515 335.402C296.488 335.402 296.462 335.402 296.435 335.402L222.224 333.84C221.678 333.828 221.141 333.695 220.653 333.451C220.165 333.206 219.737 332.856 219.402 332.426C219.066 331.996 218.83 331.496 218.711 330.963C218.593 330.43 218.594 329.878 218.716 329.346L236.784 250.275C236.967 249.461 237.422 248.735 238.074 248.215C238.726 247.695 239.536 247.414 240.37 247.417H252.465C260.984 247.447 269.236 250.391 275.848 255.761C282.46 261.13 287.032 268.601 288.805 276.93L300.113 330.973C300.225 331.508 300.216 332.061 300.087 332.592C299.958 333.123 299.713 333.619 299.368 334.043C299.023 334.468 298.588 334.81 298.095 335.045C297.601 335.28 297.062 335.402 296.515 335.402Z" fill="#2F2E41"/>
<path id="Vector_40" d="M248.837 290.668C247.869 290.67 246.941 290.289 246.253 289.61L196.727 240.72C196.383 240.38 196.109 239.977 195.922 239.532C195.734 239.087 195.636 238.61 195.633 238.127C195.63 237.644 195.722 237.165 195.904 236.718C196.086 236.271 196.355 235.864 196.694 235.52L202.563 229.581C203.248 228.887 204.181 228.494 205.156 228.488C206.132 228.482 207.07 228.863 207.764 229.548L257.29 278.438C257.983 279.124 258.376 280.056 258.382 281.031C258.388 282.006 258.007 282.943 257.322 283.637L251.454 289.577C251.112 289.924 250.704 290.198 250.255 290.386C249.806 290.573 249.324 290.669 248.837 290.668Z" fill="#F96167"/>
<path id="Vector_41" d="M246.547 292.149L224.769 270.909C224.09 270.246 223.692 269.348 223.658 268.4C223.624 267.452 223.956 266.528 224.586 265.818L233.752 255.491C234.115 255.083 234.563 254.76 235.064 254.546C235.566 254.332 236.109 254.231 236.654 254.252C237.2 254.273 237.733 254.414 238.217 254.665C238.702 254.917 239.124 255.273 239.454 255.707L262.756 279.445C263.409 280.173 263.747 281.13 263.696 282.107C263.644 283.084 263.208 284 262.482 284.656L251.766 292.425C251.037 293.08 250.078 293.418 249.099 293.366C248.121 293.315 247.203 292.877 246.547 292.149Z" fill="#2F2E41"/>
<path id="Vector_42" d="M456.326 397H38.5667C38.478 397 38.3902 396.983 38.3083 396.949C38.2263 396.916 38.1518 396.866 38.089 396.803C38.0263 396.741 37.9764 396.667 37.9425 396.585C37.9085 396.503 37.891 396.415 37.891 396.327C37.891 396.238 37.9085 396.15 37.9425 396.068C37.9764 395.987 38.0263 395.912 38.089 395.85C38.1518 395.787 38.2263 395.737 38.3083 395.704C38.3902 395.67 38.478 395.653 38.5667 395.653H456.326C456.415 395.653 456.503 395.67 456.585 395.704C456.667 395.737 456.741 395.787 456.804 395.85C456.867 395.912 456.917 395.987 456.95 396.068C456.984 396.15 457.002 396.238 457.002 396.327C457.002 396.415 456.984 396.503 456.95 396.585C456.917 396.667 456.867 396.741 456.804 396.803C456.741 396.866 456.667 396.916 456.585 396.949C456.503 396.983 456.415 397 456.326 397Z" fill="#3F3D56"/>
</g>
<defs>
<clipPath id="clip0_25_177">
<rect width="457" height="397" fill="white"/>
</clipPath>
</defs>
</svg>
