<svg width="1077" height="560" viewBox="0 0 1077 560" fill="none" xmlns="http://www.w3.org/2000/svg">
<g id="Frame 1">
<path id="america" d="M262.732 67.2175C262.358 64.2641 261.603 61.3717 260.484 58.6129C260.342 58.0912 260.092 57.6049 259.751 57.1851C259.41 56.7652 258.986 56.4209 258.504 56.1741C257.861 56.0069 257.186 55.9993 256.54 56.1522L246.452 57.6956C245.608 57.7342 244.8 58.0483 244.151 58.5899C242.837 59.9716 244.131 62.1965 244.09 64.1027C244.045 66.2462 242.141 67.986 240.075 68.5617C237.967 68.9876 235.793 68.9607 233.696 68.4826L219.591 66.2906C223.745 64.9644 227.442 62.4969 230.261 59.1699C232.117 56.971 233.105 52.8657 230.422 51.8244C229.625 51.6057 228.794 51.539 227.973 51.6277C221.582 51.6774 216.553 46.3417 210.57 44.0945C206.741 42.7492 202.585 42.6491 198.696 43.8085C194.806 44.968 191.383 47.3276 188.916 50.5499L196.43 50.9122C197.137 50.8731 197.838 51.0601 198.431 51.4459C200.078 52.7989 198.031 55.3976 198.263 57.5162C198.564 60.2687 202.219 60.8564 204.974 61.1347C207.729 61.413 211.224 63.6514 209.898 66.0826C196.052 70.852 181.961 56.7594 167.419 58.4942C163.739 58.9333 160.264 60.3791 156.67 61.2883C134.719 66.8421 112.026 52.0239 89.6024 55.1621C84.6173 56.012 79.7178 57.3041 74.9619 59.0233C71.91 60.0254 68.7267 61.1084 66.5091 63.4324C64.2916 65.7564 63.4477 69.7308 65.5484 72.1609C59.7582 72.6377 53.9293 72.0836 48.3326 70.5244C49.8461 71.3657 51.1052 72.5989 51.9777 74.0946C52.8502 75.5902 53.3039 77.2932 53.2913 79.0247C44.2506 80.4989 35.4493 83.1826 27.1241 87.0035C28.6779 89.5873 30.4927 92.0049 32.5401 94.2182L21.0947 101.571C24.9615 102.545 26.9607 107.818 24.7121 111.111C28.7215 109.328 31.2063 104.713 35.4937 103.778C38.3025 103.165 41.1606 104.314 43.8252 105.393C46.4897 106.473 49.4184 107.519 52.1768 106.709C54.9352 105.899 56.9698 102.323 55.217 100.044C67.0072 96.6038 79.1922 94.7 91.4698 94.3798C92.417 94.2609 93.3775 94.4432 94.2153 94.9009C95.8136 96.0097 95.3931 98.4047 95.307 100.348C95.2209 102.291 96.7355 104.845 98.4724 103.969C96.429 105.741 98.1758 109.077 100.136 110.94C102.097 112.804 104.46 115.375 103.259 117.798C102.946 118.431 102.415 118.937 102.113 119.575C101.224 121.46 102.636 123.656 104.302 124.907C105.968 126.159 108.009 127.033 109.167 128.766C110.324 130.499 109.798 133.531 107.729 133.773L101.847 126.305C99.8368 128.389 98.4589 131 97.8729 133.835C104.111 138.934 105.049 149.313 99.8267 155.448C97.158 158.583 93.3629 160.489 90.0507 162.934C86.7384 165.38 83.6735 168.862 83.6818 172.979C83.6962 180.092 83.115 186.7 85.7805 193.295C90.6956 205.455 96.3703 217.295 102.771 228.743C104.452 231.749 106.624 235.044 110.029 235.561C105.726 225.085 101.852 214.446 98.4077 203.644C100.651 203.653 103.244 203.831 104.559 205.648C105.648 207.153 105.414 209.2 105.752 211.026C106.182 212.796 106.9 214.483 107.877 216.021L128.426 252.625C130.13 255.66 132.084 258.917 135.339 260.146C137.421 260.932 139.829 260.784 141.745 261.915C143.247 262.801 144.258 264.375 145.789 265.21C150.118 267.572 156.138 263.043 160.183 265.862C161.34 266.669 162.076 267.949 163.142 268.872C166.878 272.108 173.007 269.943 177.32 272.357C180.1 273.913 181.541 277.024 183.023 279.843C186.737 286.905 192.747 293.824 200.706 294.386C203.206 294.563 205.76 294.089 208.204 294.645C210.648 295.201 213.054 297.334 212.661 299.809C211.989 304.053 214.086 308.701 213.522 312.96C212.497 320.72 201.49 324.13 200.545 331.9C200.338 333.601 200.662 335.357 200.257 337.022C199.76 339.063 198.228 340.724 197.683 342.753C196.651 346.597 199.405 350.423 202.431 353.009C205.456 355.595 209.065 357.825 210.72 361.446C212.468 365.272 211.609 369.734 212.178 373.903C213.419 383.003 221.279 389.75 229.369 394.1C231.833 395.425 234.479 396.708 236.075 399.007C238.157 402.008 237.949 405.964 238.645 409.55C240.347 418.331 247.74 425.567 247.95 434.51C248.099 440.866 244.566 446.632 242.455 452.629C240.476 458.376 239.76 464.481 240.356 470.529C240.951 476.577 242.844 482.425 245.906 487.675C247.485 490.341 249.373 492.855 250.49 495.745C252.483 500.902 251.836 506.765 253.674 511.98C256.104 518.875 262.78 524.57 262.141 531.852C265.172 538.146 271.864 541.238 278.594 543.112L290.656 546.469C292.965 547.112 295.379 547.76 297.73 547.295C300.082 546.829 302.326 544.876 302.266 542.48C296.351 541.146 290.246 539.727 285.371 536.123C280.495 532.519 277.155 526.1 279.005 520.326C279.862 517.649 281.687 514.557 279.952 512.344C278.959 511.078 277.142 510.747 276.022 509.591C274.274 507.788 274.875 504.76 276.131 502.586C277.388 500.412 279.204 498.47 279.71 496.01C279.966 494.635 279.795 493.214 279.221 491.938C278.646 490.662 277.695 489.592 276.495 488.873C278.731 488.028 280.765 486.723 282.465 485.042C284.035 483.249 284.76 480.485 283.525 478.447C287.192 478.912 291.522 479.14 293.93 476.334C295.852 474.094 295.72 470.745 294.961 467.892C294.201 465.039 292.917 462.268 292.877 459.316C301.337 459.717 309.816 459.43 318.23 458.457C317.013 454.359 314.248 450.897 310.522 448.803C314.332 448.158 317.804 443.596 319.008 439.924C320.212 436.252 319.905 432.251 319.161 428.459C318.875 427.482 318.836 426.45 319.047 425.455C319.476 424.088 320.819 423.253 322.062 422.539L340.976 411.677C342.105 411.111 343.128 410.356 344.001 409.444C345.983 407.116 345.689 403.602 344.674 400.719C343.66 397.835 342.034 395.123 341.643 392.091C340.474 383.024 350.181 376.518 353.457 367.982C354.742 364.633 355.004 360.992 355.253 357.412C355.52 353.568 355.54 349.103 352.589 346.625C349.759 344.251 345.338 344.78 342.377 342.571C339.663 340.546 338.726 336.613 335.761 334.977C333.068 333.492 329.691 334.437 326.696 333.738C321.422 332.508 318.104 326.43 312.718 325.867C309.679 325.55 306.24 327.035 303.749 325.265C301.555 323.706 301.467 320.572 301.049 317.912C300.317 313.779 298.336 309.969 295.372 306.996C292.409 304.023 288.605 302.029 284.474 301.284C281.341 300.781 277.931 300.972 275.265 299.25C272.566 297.507 271.329 294.243 269.209 291.828C265.792 287.937 260.41 286.554 255.369 285.369L234.863 280.548C231.223 279.693 226.531 279.239 224.578 282.428C224 283.642 223.59 284.929 223.361 286.254C222.629 288.651 221.156 290.754 219.154 292.262C217.151 293.769 214.723 294.602 212.217 294.642C210.498 291.711 207.714 289.557 204.445 288.629C202.366 288.05 200.14 287.985 198.157 287.133C197.077 286.606 196.116 285.864 195.333 284.952C194.549 284.041 193.96 282.979 193.602 281.832C193.243 280.685 193.122 279.477 193.246 278.281C193.371 277.086 193.738 275.929 194.325 274.88C195.507 272.775 195.963 270.34 195.624 267.95C195.284 265.559 194.168 263.347 192.446 261.655C188.959 258.524 183.914 257.768 179.238 258.081C178.014 255.409 180.061 252.394 182.268 250.452C184.475 248.51 187.154 246.601 187.635 243.701C188.39 239.14 182.57 235.675 178.151 237.036C173.732 238.396 170.912 242.688 169.047 246.919C167.977 249.347 167.068 251.903 165.38 253.95C163.693 255.997 160.976 257.463 158.405 256.806C154.767 255.876 153.361 251.553 152.556 247.884C151.475 242.962 150.389 237.972 150.615 232.939C150.841 227.905 152.538 222.736 156.25 219.328C162.299 213.775 171.578 214.319 179.742 215.205C177.813 213.032 178.29 209.37 180.353 207.325C181.443 206.357 182.752 205.669 184.167 205.322C185.582 204.974 187.06 204.977 188.474 205.33C190.934 205.842 193.15 207.167 194.765 209.091C197.085 211.92 197.745 215.738 199.498 218.949C201.252 222.159 205.194 224.897 208.421 223.175C211.209 221.687 211.651 217.822 210.958 214.74C210.264 211.657 208.79 208.66 209.042 205.51C209.521 199.501 215.751 195.883 221.248 193.408C226.745 190.933 233.04 187.605 233.911 181.639C233.941 180.471 234.161 179.316 234.563 178.219C235.173 177.25 236.02 176.453 237.025 175.904C253.069 165.301 269.379 154.569 287.717 148.776C288.671 148.474 288.783 148.809 289.755 148.573C291.116 147.787 290.214 145.611 288.91 144.734C287.605 143.858 285.861 143.186 285.53 141.65C285.287 140.52 285.952 139.411 286.125 138.269C286.55 135.462 283.192 132.87 280.584 133.992C279.111 132.042 282.026 129.775 284.383 129.126C291.46 127.178 298.724 125.992 306.053 125.586C306.899 125.452 307.765 125.599 308.519 126.005C309.75 126.858 309.593 128.814 308.72 130.031C307.848 131.248 306.491 132.012 305.404 133.042C304.216 134.199 303.369 135.66 302.955 137.266C302.541 138.871 302.576 140.56 303.056 142.147C306.882 144.093 311.041 146.096 315.279 145.411C319.516 144.725 323.277 139.964 321.285 136.162C319.431 132.621 313.859 131.822 312.901 127.941C311.779 123.397 318.211 119.356 316.763 114.906C316.128 112.956 314.185 111.809 312.694 110.402C310.934 108.676 309.736 106.459 309.259 104.04C308.782 101.622 309.047 99.1153 310.02 96.8503C307.592 97.2774 305.097 97.1161 302.744 96.3798C300.391 95.6435 298.249 94.3537 296.497 92.6186C293.263 89.3543 290.682 84.205 286.089 84.3511C281.875 84.4851 278.244 89.4024 274.303 87.9022C273.333 87.5331 272.311 86.782 271.372 87.2221C271.064 87.422 270.805 87.6892 270.616 88.0037C270.427 88.3181 270.311 88.6715 270.278 89.0371C269.277 93.8255 271 99.2812 268.39 103.419C265.55 107.922 258.981 108.546 255.538 112.606C253.669 114.81 252.945 117.78 251.227 120.104C249.51 122.428 245.863 123.905 243.802 121.88C244.815 119.797 245.092 117.432 244.587 115.172C244.082 112.911 242.825 110.889 241.022 109.435C239.108 108.186 237.044 107.183 234.88 106.448C232.462 105.424 230.162 104.142 228.02 102.624C226.946 101.977 226.074 101.044 225.501 99.9292C225.047 98.5337 225.108 97.0219 225.673 95.6675C226.719 92.6704 228.563 90.0157 231.007 87.9901C233.45 85.9645 236.401 84.645 239.54 84.1738C242.285 83.8004 245.48 83.932 247.296 81.8406C248.258 80.7339 248.762 79.0609 250.157 78.6114C251.049 78.4321 251.976 78.5462 252.798 78.9367L263.043 82.5429C264.186 83.0589 265.445 83.267 266.693 83.1465C267.312 83.0631 267.877 82.7487 268.274 82.2664C268.67 81.7841 268.87 81.1695 268.833 80.546C268.505 78.8446 265.887 78.0282 266.126 76.3121C266.259 75.7559 266.558 75.2533 266.983 74.8707C270.681 70.9353 275.202 67.8661 280.225 65.8828C285.247 63.8995 290.646 63.0511 296.034 63.3984C297.328 65.5222 295.282 68.0372 293.581 69.8502C291.879 71.6633 290.512 74.9027 292.569 76.2983C293.413 76.7287 294.351 76.94 295.297 76.9126C297.82 77.2541 300.271 77.9976 302.558 79.1149C306.099 80.6556 309.571 82.3414 312.975 84.1722C312.675 81.9275 312.388 79.5627 313.238 77.4638C314.089 75.3649 316.507 73.7187 318.62 74.5361C320.655 75.3238 321.699 78.0191 323.868 78.266C326.76 78.5954 327.902 74.3218 326.693 71.6729C325.485 69.024 323.093 66.8059 322.893 63.9013C322.759 61.9417 323.504 59.5114 321.939 58.3248C321.382 57.9686 320.75 57.7468 320.092 57.6772L281.008 50.4851C278.687 50.058 275.334 50.3853 275.231 52.7429C275.174 54.0589 276.349 55.3609 275.829 56.5708C275.273 57.8622 273.447 57.7441 272.118 58.2009C270.055 58.9096 269.019 61.3593 269.218 63.5317C269.58 65.6903 270.416 67.7419 271.666 69.5392C269.123 68.4761 265.274 68.2806 262.732 67.2175Z" fill="#3F3D56"/>
<path id="Vector" d="M231.547 34.0401C229.082 33.2244 226.427 33.1865 223.94 33.9312C221.453 34.676 219.255 36.1675 217.644 38.2036C217.001 39.0509 216.46 40.219 216.999 41.1365C217.772 42.4519 219.74 41.9323 221.191 41.4618C223.323 40.6998 225.645 40.6444 227.811 41.3039C229.174 41.7717 230.393 42.5984 231.761 43.0485C232.428 43.3272 233.157 43.4192 233.871 43.3148C234.586 43.2104 235.258 42.9135 235.817 42.4559C236.756 41.498 236.815 40.0089 236.817 38.6674C236.882 38.2185 236.846 37.7607 236.712 37.3275C236.577 36.8943 236.348 36.4965 236.04 36.1632C235.493 35.8459 234.877 35.6639 234.245 35.6321C232.829 35.37 231.549 34.6221 230.625 33.5173" fill="#3F3D56"/>
<path id="Vector_2" d="M245.64 30.1163C245.088 30.0862 244.538 30.1986 244.043 30.4426C243.547 30.6865 243.123 31.0539 242.81 31.5093C242.498 31.9648 242.307 32.4929 242.258 33.0431C242.209 33.5932 242.302 34.1468 242.528 34.6507C244.222 35.1126 245.991 35.228 247.731 34.9899C248.599 34.8552 249.407 34.4667 250.054 33.8733C250.701 33.28 251.158 32.5083 251.368 31.6557C249.32 32.0284 247.206 31.6247 245.44 30.5235" fill="#3F3D56"/>
<path id="Vector_3" d="M292.923 23.5632C288.313 24.5433 283.834 26.0647 279.581 28.0955C281.586 28.8662 283.29 30.2607 284.443 32.0734C285.596 33.8861 286.136 36.0212 285.983 38.1639C285.803 38.9865 285.824 39.8404 286.044 40.6533C286.534 41.8412 287.954 42.287 289.202 42.5919C291.445 43.2744 293.787 43.5733 296.129 43.476C297.301 43.4147 298.439 43.0622 299.44 42.4504C300.441 41.8386 301.274 40.9869 301.863 39.9722C302.202 39.0092 302.601 38.0679 303.055 37.1536C306.048 32.5965 314.937 38.1067 318.149 33.7022C319.281 32.1507 319.177 29.8152 320.653 28.5858C321.416 28.0502 322.3 27.7127 323.226 27.6037C329.687 26.3201 336.213 25.3907 342.775 24.8196C345.884 24.549 349.936 23.4326 349.962 20.3117C338.251 18.0117 326.108 19.6453 315.421 24.9585C311.571 26.887 306.478 30.9438 302.769 28.387C301.38 27.4297 301.449 24.8519 299.538 23.7754C297.584 22.6749 294.997 23.1225 292.923 23.5632Z" fill="#3F3D56"/>
<path id="antartica" d="M331.222 30.7252L336.719 31.7815C335.707 31.7367 334.698 31.9082 333.757 32.2846C332.817 32.6609 331.967 33.2335 331.266 33.9641C330.564 34.6948 330.027 35.5666 329.689 36.5215C329.351 37.4764 329.22 38.4923 329.306 39.5016C334.454 41.2214 340.067 39.5479 345.49 39.7765C350.913 40.0051 357.222 43.8788 356.297 49.227C356.017 50.8442 355.082 52.4602 355.568 54.0278C355.909 55.1266 356.878 55.9062 357.425 56.9181C358.564 59.0268 357.654 61.694 356.214 63.6109C354.775 65.5278 352.841 67.0572 351.578 69.0943C348.436 74.1609 350.221 80.7109 352.092 86.3712C352.633 88.5099 353.633 90.5056 355.021 92.2201C357.794 95.1683 362.313 95.4247 366.36 95.4837C369.305 95.5267 372.679 95.3812 374.542 93.0991C376.974 90.1197 375.273 85.4712 376.874 81.9744C378.328 78.7987 382.033 77.4363 385.389 76.47C391.539 74.6997 397.805 73.1948 403.618 70.5208C410.837 67.2005 417.583 62.0261 425.518 61.5987C427.744 61.4788 430.025 61.7415 432.169 61.1317C434.313 60.5218 436.35 58.6681 436.187 56.4448C436.049 54.5452 434.441 53.1503 433.186 51.7183C431.93 50.2863 430.944 48.0843 432.098 46.5693L452.894 42.6848C451.42 38.6674 450.272 33.3763 453.659 30.7613C454.882 29.8178 456.518 29.4407 457.559 28.3001C459.332 26.356 458.44 23.0071 456.393 21.3537C454.346 19.7004 451.577 19.3165 448.955 19.0987C439.836 18.3414 430.665 18.8418 421.528 19.3426C403.668 20.3216 385.808 21.3006 367.949 22.2795C364.353 22.4766 360.202 22.1755 356.905 23.4021C354.113 24.4405 352.128 26.3467 348.936 27.0164C343.042 28.2528 336.555 27.4161 331.222 30.7252Z" fill="#3F3D56"/>
<g id="lands_2">
<path id="Vector_4" d="M429.706 74.1785C429.146 74.0898 428.573 74.2198 428.106 74.5414C427.797 74.8815 427.614 75.3167 427.585 75.7753C427.23 77.7991 427.653 79.8823 428.769 81.6076C429.337 82.454 430.122 83.1328 431.041 83.5736C431.961 84.0143 432.981 84.201 433.997 84.1141C436.472 83.7984 438.297 81.6866 440.572 80.6561C444.08 79.0693 458.975 76.5956 448.671 71.0289C445.12 69.1104 442.826 70.804 440.027 72.0674C436.843 73.6964 433.275 74.4263 429.706 74.1785Z" fill="#3F3D56"/>
<path id="Vector_5" d="M519.956 27.5826C518.753 28.0741 517.747 28.9503 517.094 30.0742C516.793 30.6449 516.723 31.3094 516.899 31.9301C517.074 32.5509 517.482 33.0804 518.037 33.4092C518.486 33.5722 518.962 33.6477 519.44 33.6319L524.332 33.778C526.411 33.8401 529.007 34.2827 529.565 36.2855C529.98 37.7727 529.052 39.6836 530.172 40.7464C530.652 41.1186 531.23 41.344 531.836 41.3955C533.447 41.8095 535.13 41.8638 536.765 41.5546C540.325 40.5998 538.454 38.4273 539.575 36.4928C541.291 33.533 540.994 35.3247 544.016 33.6284C546.248 32.3756 549.133 30.1031 547.27 26.9101C544.03 21.3576 524.737 25.1973 519.956 27.5826Z" fill="#3F3D56"/>
<path id="Vector_6" d="M616.515 24.7911L613.674 25.1702C607.269 26.025 600.826 26.8877 594.657 28.8114C597.327 29.8673 600.129 30.5549 602.985 30.8551C604.558 30.9322 606.119 31.1542 607.651 31.5183C610.376 32.3295 613.122 34.4244 615.755 33.3513C617.387 32.6859 617.92 30.9862 619.272 30.0855C620.206 29.4635 623.747 28.4567 624.143 27.8289C627.344 22.7535 618.975 24.4628 616.515 24.7911Z" fill="#3F3D56"/>
<path id="Vector_7" d="M628.989 37.7021C625.195 39.8238 621.674 42.4021 618.506 45.3793C617.171 46.6339 615.808 48.1944 615.929 50.0223C616.09 52.4516 618.678 53.8608 620.92 54.81L630.001 58.6549C631.103 57.1021 630.094 54.9587 628.956 53.4328C627.817 51.9069 626.464 50.1414 626.967 48.3052C627.541 46.2098 630.096 45.4957 632.239 45.1347C635.729 44.5466 645.146 44.5937 644.015 38.968C642.681 32.3393 632.493 35.7434 628.989 37.7021Z" fill="#3F3D56"/>
</g>
<g id="lands_1">
<path id="Vector_8" d="M627.163 412.829C626.298 415.332 626.216 418.281 627.712 420.466C629.39 422.918 632.748 423.832 635.654 423.21C638.547 422.44 641.126 420.782 643.027 418.469C644.766 416.532 646.197 414.338 647.269 411.965C648.765 408.268 649.82 404.407 650.412 400.463L653.232 385.659C653.862 382.35 653.837 372.207 647.756 375.512C646.095 376.415 642.249 383.543 640.508 385.564C637.37 389.208 636.955 392.743 635.303 397.156C633.234 402.685 629.076 407.292 627.163 412.829Z" fill="#3F3D56"/>
<path id="Vector_9" d="M948.345 488.587C946.355 487.81 944.424 486.891 942.567 485.836C940.704 490.956 939.714 496.353 939.637 501.801L953.253 494.096C955.301 492.937 957.623 491.326 957.579 488.973C957.597 488.683 957.537 488.393 957.405 488.133C957.272 487.874 957.072 487.655 956.826 487.5C956.524 487.378 956.194 487.34 955.872 487.388C953.853 487.556 952.012 488.55 950.107 489.24C948.203 489.931 945.975 490.296 944.228 489.271" fill="#3F3D56"/>
<path id="Vector_10" d="M1020.17 493.161C1018.68 493.568 1017.22 494.092 1015.81 494.728C1012.68 496.318 1010.56 499.337 1007.74 501.431C1005.05 503.435 1001.81 504.535 998.634 505.605C997.698 506.432 998.128 508.097 999.144 508.823C1000.24 509.444 1001.49 509.726 1002.74 509.631C1006.04 509.704 1009.52 509.736 1012.42 508.141C1014.05 507.083 1015.57 505.872 1016.97 504.525C1020.36 501.702 1024.42 499.839 1028.44 498.04C1029.9 497.487 1031.26 496.678 1032.44 495.65C1034.96 493.16 1035.14 489.319 1031.5 488.472C1028.55 487.787 1022.98 492.254 1020.17 493.161Z" fill="#3F3D56"/>
<path id="Vector_11" d="M1051.91 472.43C1052.07 470.717 1051.84 468.989 1051.24 467.377C1050.64 465.765 1049.68 464.31 1048.43 463.124C1048.4 466.551 1048.29 470.203 1046.36 473.037C1044.99 475.057 1042.84 476.421 1041.33 478.345C1039.83 480.268 1039.16 483.318 1040.92 485.006C1042.05 485.864 1043.43 486.338 1044.84 486.356C1048.36 486.77 1052.42 487 1054.89 484.462C1056.23 483.076 1056.89 481.024 1058.53 480.005C1059.14 479.749 1059.69 479.358 1060.13 478.862C1060.8 477.785 1059.73 476.366 1058.52 475.978C1057.3 475.59 1055.97 475.773 1054.75 475.404C1053.53 475.036 1052.42 473.666 1053.04 472.558" fill="#3F3D56"/>
<path id="Vector_12" d="M995.503 346.759C993.659 347.208 991.75 347.32 989.867 347.092C986.739 346.516 984.304 344.159 981.779 342.226C975.775 337.654 968.477 335.105 960.933 334.942C954.071 334.813 947.144 336.672 940.404 335.375C940.844 337.824 942.94 339.661 945.176 340.753C947.413 341.845 949.881 342.394 952.128 343.464C955.726 345.194 958.58 348.163 960.167 351.827C960.89 353.517 961.346 355.355 962.442 356.83C964.683 359.845 968.93 360.507 972.678 360.26C977.564 359.939 982.668 358.533 987.215 360.354C990.692 361.747 993.182 364.791 996.086 367.158C998.99 369.525 1003.08 371.281 1006.41 369.574C1002.95 368.452 999.936 366.253 997.811 363.297C995.685 360.342 994.56 356.784 994.6 353.144C997.87 353.444 1007.29 353.328 1006.78 347.771C1006.35 343.062 998.311 346.251 995.503 346.759Z" fill="#3F3D56"/>
</g>
<path id="australia" d="M952.72 385.076C953.3 381.891 956.476 379.079 955.487 375.997C954.803 373.865 952.331 372.812 950.093 372.76C947.855 372.707 945.656 373.374 943.418 373.437C941.961 373.359 940.501 373.38 939.047 373.499C934.605 374.229 931.867 378.885 927.68 380.541C925.134 381.548 922.275 381.355 919.627 382.051C913.617 383.631 909.814 389.31 905.613 393.889C898.825 401.254 889.982 406.411 880.229 408.692C876.812 409.484 873.139 409.99 870.423 412.209C866.826 415.148 865.94 420.186 865.14 424.762C862.929 437.398 859.551 449.801 855.047 461.812L869.318 463.635C872.031 463.981 874.842 464.32 877.457 463.516C879.356 462.8 881.155 461.841 882.81 460.665C889.165 456.719 896.279 454.151 903.689 453.128C907.426 452.615 911.344 452.521 914.851 453.91C918.358 455.299 921.367 458.449 921.661 462.21C923.177 461.738 924.793 461.687 926.337 462.062C927.88 462.438 929.292 463.225 930.423 464.341C932.657 466.618 934.121 469.539 934.606 472.692C934.982 474.644 935.358 476.983 937.17 477.802C938.648 478.471 940.343 477.751 941.96 477.622C947.446 477.183 951.999 483.58 957.392 482.478C963.175 481.297 964.595 472.635 970.238 470.9C973.478 469.904 978.024 471.115 979.575 468.101C980.943 465.444 978.214 462.378 978.496 459.403C978.842 455.74 983.163 454.185 986.494 452.622C997.978 447.234 1003.43 431.777 997.863 420.378C994.566 413.623 988.078 408.307 986.88 400.887C985.958 395.178 988.208 388.521 984.569 384.027C982.717 381.742 979.582 380.48 978.48 377.752C977.787 376.035 978.066 374.087 977.692 372.274C977.319 370.46 975.737 368.563 973.946 369.033C968.747 370.398 967.088 386.458 964.305 390.36C960.073 396.292 951.387 392.384 952.72 385.076Z" fill="#3F3D56"/>
<g id="lands_3">
<path id="Vector_13" d="M856.625 352.827C854.849 352.329 852.909 351.838 851.207 352.55C849.504 353.262 848.51 355.762 849.876 357.002C860.565 356.585 871.319 356.172 881.916 357.623C894.127 359.296 906.21 363.438 918.474 362.22C911.469 360.153 904.348 358.501 897.148 357.271L885.142 354.978C881.921 354.303 878.667 353.8 875.393 353.471C868.544 352.905 863.36 354.716 856.625 352.827Z" fill="#3F3D56"/>
<path id="Vector_14" d="M867.326 315.601C866.438 315.527 865.339 315.464 864.88 316.226C864.442 316.955 864.944 317.918 864.708 318.736C864.386 319.853 862.923 320.138 861.771 319.986C860.619 319.834 859.373 319.47 858.352 320.025C857.834 320.379 857.445 320.891 857.243 321.484C857.041 322.078 857.037 322.721 857.231 323.317C857.649 324.501 858.324 325.577 859.208 326.467C860.717 328.37 862.438 330.095 864.335 331.611C868.009 334.322 872.986 335.629 875.3 339.565C875.626 340.328 876.128 341.004 876.764 341.536C877.875 342.24 879.323 341.705 880.519 341.158L884.711 339.243C885.466 338.971 886.14 338.512 886.671 337.91C887.628 336.611 887.04 334.763 886.236 333.363C885.433 331.963 884.404 330.514 884.576 328.909C884.884 326.048 888.563 324.953 890.076 322.505C891.601 320.037 890.608 316.857 890.784 313.96C890.99 310.574 893.118 306.168 889.694 303.638C886.784 301.487 884.003 303.475 881.914 305.849C877.508 310.856 875.425 316.278 867.326 315.601Z" fill="#3F3D56"/>
<path id="Vector_15" d="M892.771 264.998C894.203 267.739 897.186 269.374 898.747 272.043C900.438 274.935 900.246 278.673 902.081 281.476C903.964 284.353 907.753 285.88 908.808 289.152C909.961 292.724 907.346 297.065 909.431 300.186C909.819 300.696 910.31 301.12 910.871 301.431C911.432 301.741 912.052 301.932 912.691 301.991C913.329 302.049 913.973 301.975 914.582 301.772C915.19 301.568 915.75 301.241 916.225 300.81C917.104 299.853 917.574 298.591 917.536 297.292C917.498 295.993 916.953 294.76 916.019 293.857C914.785 292.731 913.012 292.245 911.982 290.93C911.445 290.171 911.087 289.301 910.936 288.384C910.374 285.739 910.464 282.997 911.198 280.395C911.474 279.734 911.544 279.006 911.399 278.305C910.935 276.956 909.109 276.861 907.827 276.235C904.916 274.814 904.987 270.705 905.495 267.506C905.157 269.636 897.569 266.013 896.775 264.807C895.196 262.41 896.055 257.786 895.743 255.138C892.336 256.78 891.022 261.648 892.771 264.998Z" fill="#3F3D56"/>
<path id="Vector_16" d="M816.335 307.16C814.934 305.593 812.825 303.953 810.947 304.898C809.515 305.619 809.121 307.601 809.682 309.104C810.366 310.563 811.419 311.818 812.737 312.746C816.65 315.972 820.863 318.885 824.276 322.636C830.385 329.348 833.62 338.406 840.264 344.59C841.599 346.024 843.367 346.981 845.298 347.314C847.233 347.494 849.406 346.256 849.629 344.325C849.812 342.734 848.703 341.31 847.619 340.131C845.039 337.325 842.214 334.741 839.778 331.808C838.652 330.681 837.945 329.205 837.773 327.622C837.761 326.043 839.201 324.39 840.731 324.781C838.87 324.305 837.49 321.205 834.759 320.622C832.476 320.135 831.924 321.548 829.208 320.383C824.027 318.161 819.963 311.222 816.335 307.16Z" fill="#3F3D56"/>
<path id="Vector_17" d="M938.067 154.514C936.581 154.072 935.119 153.55 933.69 152.95C929.843 151.796 924.754 154.623 925.266 158.606C925.607 161.253 928.07 163.037 929.43 165.333C931.448 168.737 930.91 173.055 929.85 176.868C929.59 178.048 929.095 179.164 928.394 180.15C927.416 181.19 926.245 182.032 924.948 182.629C919.753 185.542 915.172 189.434 911.458 194.09C911.054 194.52 910.773 195.05 910.643 195.625C910.46 196.97 911.811 197.95 912.576 199.072C914.274 201.563 913.046 204.916 913.214 207.927C913.188 208.352 913.272 208.778 913.456 209.162C913.641 209.546 913.921 209.877 914.269 210.123C915.292 210.643 916.505 209.76 917.06 208.755C918.9 205.421 917.514 200.068 920.967 198.46C921.62 198.156 922.412 198.028 922.847 197.454C923.539 196.544 922.872 195.196 923.222 194.108C923.748 192.475 925.982 192.401 927.697 192.474C930.65 192.597 933.603 192.204 936.421 191.312C937.526 191.049 938.531 190.468 939.309 189.64C940.341 188.352 940.25 186.52 940.043 184.882C939.01 176.717 936.424 168.825 932.424 161.633C935.457 162.02 938.757 162.356 941.374 160.775C942.84 159.89 944.597 157.243 943.871 155.441C942.721 152.592 940.644 154.99 938.067 154.514Z" fill="#3F3D56"/>
</g>
<path id="africa" d="M549.218 199.42C549.581 201.367 549.937 203.417 549.299 205.292C548.661 207.167 546.654 208.733 544.759 208.159C543.288 207.713 542.439 206.234 541.394 205.106C535.586 198.836 522.482 202.466 518.894 194.709C517.43 191.543 518.425 187.75 517.426 184.408C516.796 182.476 515.542 180.809 513.862 179.667C512.181 178.525 510.169 177.974 508.141 178.1C506.291 178.367 504.491 178.905 502.798 179.695C491.453 184.238 479.544 187.217 467.396 188.549C465.088 188.69 462.804 189.105 460.594 189.787C455.606 191.595 452.198 196.219 449.773 200.938C447.348 205.657 445.557 210.765 442.306 214.957C438.888 219.363 434.099 222.449 429.632 225.786C427.912 226.895 426.479 228.396 425.452 230.167C424.483 232.156 424.538 234.468 424.613 236.678L425.526 263.522C425.644 266.975 425.791 270.551 427.336 273.641C429.266 277.499 433.078 280.026 435.723 283.435C438.422 286.938 439.827 291.265 439.702 295.685C439.646 297.462 439.47 299.564 440.854 300.68C441.696 301.226 442.681 301.51 443.684 301.494L479.996 304.466C486.383 304.989 493.462 305.849 497.632 310.715C499.6 313.012 501.181 316.315 504.196 316.561C505.489 316.667 506.747 316.136 508.041 316.033C511.304 315.775 514.17 318.252 515.979 320.98C518.717 325.137 519.96 330.103 519.504 335.06C519.207 338.172 518.242 341.197 518.034 344.316C517.243 356.184 527.304 366.495 527.499 378.387C527.613 385.382 524.293 391.918 521.055 398.12C526.28 406.036 522.001 416.577 524.082 425.831C526.055 434.611 533.376 441.484 535.2 450.296C536.035 454.33 536.083 459.295 539.641 461.372C541.201 462.133 542.932 462.48 544.665 462.378C555.121 462.502 565.458 460.149 574.83 455.511C579.229 453.328 583.788 450.07 584.556 445.22C585.175 441.309 583.192 436.934 585.21 433.527C587.589 429.512 593.684 429.83 597.184 426.743C602.863 421.734 598.435 412.183 600.735 404.969C602.804 398.485 609.923 395.041 613.452 389.221C614.84 386.718 615.837 384.017 616.407 381.212C618.023 374.508 619.03 367.671 619.413 360.786C619.507 356.602 619.816 352.426 620.337 348.274C624.142 324.637 647.511 308.808 655.098 286.1C655.822 283.932 656.163 281.043 654.233 279.816C653.089 279.27 651.792 279.134 650.559 279.432L633.82 281.542C631.741 281.804 629.537 282.049 627.628 281.185C625.719 280.322 624.35 277.906 625.363 276.072C628.206 270.922 622.358 264.415 619.76 259.137C612.763 244.927 604.43 231.414 594.875 218.78C594.264 218.131 593.881 217.299 593.784 216.412L598.535 216.57C596.931 210.816 594.285 204.519 588.694 202.414C585.544 201.227 582.055 201.638 578.694 201.821C569.067 202.347 558.746 200.894 549.218 199.42Z" fill="#3F3D56"/>
<path id="euresia" d="M578.702 69.7446C581.221 72.4198 584.044 75.2563 587.689 75.7226C594.127 76.5462 598.756 69.8888 601.703 64.106C601.812 65.5802 602.492 66.9538 603.598 67.9344C604.705 68.9151 606.15 69.4255 607.626 69.3572C609.215 69.0898 610.732 68.4968 612.081 67.6155C624.837 60.6447 639.124 56.9513 653.66 56.867C653.521 55.7659 653.794 54.6521 654.427 53.7405C655.06 52.8289 656.009 52.1841 657.089 51.9306C660.045 51.3447 662.707 53.8999 664.133 56.5541C665.558 59.2084 666.447 62.2849 668.712 64.2717C670.977 66.2585 675.363 66.1719 676.257 63.2949C677.116 60.5328 674.239 58.1773 671.848 56.5489C669.458 54.9204 666.938 51.9065 668.548 49.5033C680.761 46.7998 693.05 44.0861 705.547 43.5487C707.675 43.6228 709.795 43.2575 711.776 42.4758C713.682 41.5405 715.196 39.4175 714.684 37.3573C711.957 37.9984 709.1 37.8127 706.479 36.824C703.858 35.8353 701.59 34.0883 699.966 31.8057C717.307 30.3747 735.751 29.155 751.119 37.3147C752.963 41.2737 743.564 44.5675 746.079 48.1383C746.881 49.2772 748.488 49.4108 749.88 49.4366C760.56 49.6349 771.301 49.8293 781.86 48.217C785.719 47.6278 789.616 46.796 793.49 47.2738C799.943 48.0696 805.462 52.375 811.81 53.7788C814.394 54.3501 817.291 54.3695 819.469 52.8667C821.647 51.3638 822.584 47.9419 820.799 45.9882C826.776 40.1301 836.696 41.582 844.581 44.3866C852.467 47.1912 859.937 51.714 868.283 52.3391C874.267 52.7874 880.335 51.1776 886.249 52.2009C889.965 52.8439 893.424 54.4971 897.056 55.5127C903.925 57.4337 911.192 57.0282 918.324 57.1207C936.522 57.3659 954.521 60.9424 971.43 67.6732C973.63 68.3894 975.645 69.5801 977.334 71.1612C978.907 72.8461 979.709 75.4642 978.652 77.5126L961.179 74.9596C962.825 78.2004 967.084 78.7527 970.543 79.8707C974.002 80.9887 977.588 84.8083 975.509 87.7903C971.762 86.5971 968.366 90.3439 966.473 93.7913C964.58 97.2386 962.273 101.367 958.345 101.577C954.829 101.765 950.575 98.7708 948.283 101.444C951.45 105.44 954.162 109.775 956.368 114.371C958.633 119.089 960.246 125.034 957.185 129.279C956.704 130.037 955.973 130.603 955.119 130.881C952.619 131.514 950.995 128.456 949.202 126.602C946.943 124.266 943.527 123.605 940.467 122.509C937.408 121.414 934.185 119.259 933.946 116.018C933.797 114.002 934.862 112.127 935.646 110.264C936.964 107.123 937.54 103.72 937.33 100.32C937.158 97.5851 936.392 94.7398 934.427 92.8287C932.463 90.9176 929.071 90.3113 926.962 92.0617C925.978 92.8784 925.19 94.1849 923.912 94.2337C921.654 94.3201 919.921 90.3837 918.104 91.7274C918.317 93.1592 918.02 94.6203 917.265 95.8553C911.845 100.57 903.517 98.5752 896.529 100.241C893.206 101.192 890.025 102.581 887.069 104.372C885.963 104.845 885.022 105.635 884.364 106.642C883.492 108.337 884.454 110.508 885.991 111.635C887.622 112.635 889.454 113.261 891.356 113.466C899.875 115.08 908.519 117.578 915.245 123.05C921.972 128.522 926.382 137.568 924.254 145.973L907.453 129.92C908.091 136.66 908.453 143.42 908.539 150.197C908.648 151.521 908.466 152.852 908.007 154.098C906.809 156.743 903.563 157.633 900.718 158.217C899.927 158.367 899.177 158.683 898.516 159.144C897.856 159.605 897.3 160.201 896.887 160.892C896.473 161.583 896.21 162.353 896.115 163.153C896.02 163.953 896.095 164.763 896.336 165.532C897.346 168.826 899.866 171.395 902.174 173.954C904.481 176.513 906.752 179.422 907.054 182.854C907.356 186.287 904.766 190.156 901.329 189.917C898.723 189.736 896.789 187.404 895.678 185.04C894.566 182.676 893.905 180.042 892.235 178.034C887.18 171.954 875.826 174.559 871.297 168.078C870.143 169.387 869.343 170.97 868.972 172.675C868.601 174.381 868.673 176.153 869.18 177.824C871.286 176.505 874.17 177.73 875.753 179.646C877.336 181.563 878.083 184.02 879.326 186.172C881.003 189.076 883.673 191.651 883.907 194.997C883.845 196.262 883.866 197.53 883.971 198.792C884.386 200.819 886.1 202.275 887.288 203.969C890.052 207.912 889.916 213.328 888.134 217.802C886.352 222.275 883.151 226.013 879.981 229.637C874.443 235.967 868.792 242.26 862.227 247.517C860.354 249.017 858.354 250.492 857.188 252.589C856.021 254.686 855.961 257.63 857.754 259.225C856.471 259.289 854.17 259.92 852.888 259.984C852.436 254.838 852.338 249.667 852.594 244.507C847.531 242.076 842.081 248.586 842.734 254.164C843.387 259.742 847.421 264.218 850.294 269.044C852.394 272.573 853.955 276.688 853.254 280.734C852.553 284.781 848.941 288.514 844.849 288.157C838.342 287.589 835.62 278.247 829.175 277.178C828.607 277.044 828.01 277.103 827.479 277.346C826.523 277.871 826.357 279.151 826.303 280.241C826.039 285.59 825.811 291.152 827.899 296.084C830.954 303.299 838.846 309.358 837.19 317.016C828.272 312.871 823.636 302.87 821.53 293.264C819.425 283.658 819.074 273.573 815.301 264.492C812.435 268.164 806.412 265.128 803.794 261.275C801.312 257.622 799.784 253.397 797.375 249.695C794.967 245.993 791.278 242.678 786.867 242.474C782.241 242.261 778.229 245.435 774.702 248.434C771.801 250.9 768.822 253.463 767.127 256.873C764.659 261.833 765.305 267.682 765.186 273.221C765.057 279.21 763.788 285.528 759.706 289.912C755.625 294.297 748.091 295.824 743.589 291.872C741.239 289.81 740.101 286.728 739.087 283.769C734.201 269.509 730.132 254.982 726.899 240.258C726.143 243.619 723.192 247.95 720.373 245.971C719.74 245.438 719.228 244.778 718.869 244.033C713.611 235.121 703.873 229.776 694.034 226.57C684.195 223.365 673.844 221.87 664.114 218.347C658.661 216.373 653.453 213.779 648.593 210.616C647.353 212.437 646.63 214.558 646.499 216.757C646.367 218.955 646.833 221.148 647.847 223.103C650.005 226.924 654.889 229.135 659.07 227.8C661.23 227.109 663.055 225.61 665.198 224.869C667.342 224.128 670.219 224.492 671.157 226.557C672.054 228.534 670.698 230.925 671.37 232.99C672.395 236.133 677.136 236.375 678.794 239.236C680.028 241.365 679.013 244.191 677.252 245.909C675.49 247.626 673.14 248.568 670.99 249.764C664.014 253.643 659.053 260.265 652.956 265.417C646.86 270.57 638.258 274.331 630.992 271.026C632.724 262.256 622.277 255.818 620.355 247.087C619.722 244.213 620.05 241.161 619.147 238.361C617.839 234.306 614.242 231.518 611.291 228.446C607.712 224.679 604.924 220.233 603.091 215.371C601.258 210.508 600.417 205.328 600.619 200.136C600.778 196.528 601.441 192.861 600.619 189.344C599.797 185.827 596.885 182.423 593.277 182.582C585.036 182.946 574.654 183.559 570.33 176.534C568.787 174.027 568.115 170.354 570.347 168.433C571.92 167.078 574.244 167.206 576.311 167.409L594.879 169.236C599.222 169.663 603.916 170.016 607.643 167.745C611.37 165.475 612.985 159.448 609.534 156.777C607.012 154.825 602.495 154.931 601.762 151.828C601.152 149.244 604.012 146.311 602.467 144.152C601.36 142.603 598.869 143.033 597.36 144.194C595.851 145.355 594.756 147.052 593.067 147.931C590.104 149.473 586.563 148.006 583.376 147.008C580.188 146.011 575.914 145.926 574.368 148.887C572.639 152.198 575.902 156.537 574.186 159.855C571.917 164.242 564.233 161.744 561.047 165.518C557.39 169.848 563.535 176.304 562.302 181.835C560.728 182.615 558.978 182.973 557.224 182.875C555.47 182.776 553.772 182.224 552.294 181.273C550.842 180.285 549.684 178.922 548.944 177.328C548.205 175.734 547.911 173.97 548.094 172.223C548.399 169.734 549.696 167.194 548.827 164.843C548.124 162.942 546.215 161.81 544.441 160.829L526.397 150.858C524.722 153.966 526.84 157.819 529.489 160.153C532.137 162.487 535.455 164.245 537.195 167.317C538.296 169.446 538.543 171.914 537.885 174.218C537.227 176.522 535.715 178.488 533.657 179.715C533.399 179.893 533.105 180.013 532.797 180.067C532.488 180.121 532.171 180.107 531.868 180.027C531.58 179.858 531.329 179.633 531.13 179.365C530.931 179.097 530.787 178.792 530.708 178.467C527.524 170.32 522.744 162.287 515.102 158.031C507.46 153.775 496.479 154.65 491.468 161.819C490.277 163.522 489.479 165.463 488.442 167.264C482.933 176.829 471.122 181.359 460.088 181.063C459.008 181.122 457.935 180.87 456.995 180.336C455.211 179.104 455.292 176.491 455.565 174.341L456.723 165.216C456.956 163.384 457.293 161.359 458.743 160.215C460.787 158.603 463.736 159.62 466.339 159.583C468.311 159.491 470.207 158.794 471.771 157.588C473.334 156.381 474.488 154.724 475.077 152.839C475.603 150.936 475.6 148.926 475.067 147.025C474.535 145.123 473.494 143.403 472.057 142.05C470.863 140.929 469.262 139.522 469.892 138.011C470.144 137.593 470.484 137.235 470.888 136.963C471.293 136.69 471.752 136.51 472.234 136.434C476.91 135.076 481.851 134.72 486.449 133.118C491.047 131.516 495.506 128.238 496.595 123.492C496.929 122.037 497.081 120.276 498.387 119.554C499.043 119.278 499.747 119.134 500.458 119.131C502.951 118.777 505.221 117.502 506.821 115.557C508.421 113.613 509.235 111.14 509.102 108.626C511.306 107.086 514.393 108.218 516.525 109.856C518.657 111.494 520.539 113.658 523.133 114.364C527.967 115.679 532.639 111.399 537.649 111.379C539.756 111.371 541.937 112.116 543.919 111.402C545.928 110.678 547.128 108.677 548.67 107.2C550.212 105.722 552.918 104.821 554.342 106.413L553.13 97.4305C555.572 98.0474 558.118 98.1348 560.596 97.6867C563.075 97.2385 565.429 96.2653 567.5 94.8324L551.828 89.5371C551.283 89.4008 550.779 89.1317 550.363 88.7535C549.223 87.5266 550.355 85.6147 551.282 84.22C553.498 80.8836 553.87 75.3877 550.225 73.7267C547.737 72.5929 544.882 73.9538 542.494 75.2853L531.055 81.6633C530.692 83.8375 533.351 85.0698 534.998 86.5343C535.995 87.4204 536.7 88.5873 537.022 89.8817C537.344 91.1761 537.266 92.5375 536.8 93.7871C536.333 95.0366 535.5 96.1159 534.409 96.8832C533.318 97.6504 532.021 98.0698 530.687 98.0861C531.44 99.0654 531.964 100.202 532.218 101.41C532.473 102.619 532.452 103.87 532.158 105.07L524.462 105.624C523.598 105.797 522.701 105.622 521.966 105.136C521.143 104.405 521.254 103.124 521.063 102.04C520.603 99.4231 518.041 97.589 515.425 97.1187C512.81 96.6484 510.135 97.2512 507.545 97.8464C506.446 98.2421 505.238 98.2143 504.158 97.7683C503.539 97.3659 503.068 96.7718 502.818 96.0768C501.683 93.3241 502.744 90.0885 504.567 87.7344C506.391 85.3803 508.887 83.6594 511.129 81.6996C516.49 76.9958 520.428 70.8865 522.5 64.062C526.737 62.2869 531.123 59.875 535.36 58.0998C541.892 54.7927 549.217 53.3735 556.511 54.0017L570.859 54.2758C575.107 54.3569 579.47 54.4609 583.398 56.0804C587.326 57.6999 590.777 61.2026 591.049 65.4427C591.13 65.9228 591.089 66.4157 590.928 66.8753C590.767 67.3348 590.492 67.746 590.129 68.0702C589.574 68.3729 588.946 68.5145 588.315 68.479C584.353 68.6183 582.664 69.6054 578.702 69.7446Z" fill="#3F3D56"/>
<path id="Vector_18" d="M464.339 114.712C464.899 114.181 465.303 113.507 465.505 112.762C465.707 112.017 465.699 111.23 465.484 110.489C464.119 109.963 462.636 109.828 461.199 110.099C459.762 110.37 458.43 111.037 457.352 112.025C456.502 112.885 455.769 113.853 455.173 114.905C453.288 117.981 451.62 121.655 452.713 125.094C452.802 125.469 452.965 125.822 453.192 126.133C453.42 126.444 453.707 126.707 454.037 126.905C454.527 127.102 455.055 127.185 455.581 127.147C457.658 127.145 459.733 127.017 461.795 126.765C463.061 126.61 464.532 126.252 465.021 125.075C465.664 123.526 464.107 121.774 464.561 120.16C464.86 119.438 465.312 118.79 465.887 118.261C466.172 117.995 466.391 117.666 466.527 117.3C466.663 116.934 466.711 116.542 466.669 116.154C466.486 115.396 465.326 114.967 464.909 115.625" fill="#3F3D56"/>
<path id="Vector_19" d="M475.109 100.749C473.264 100.325 471.362 100.206 469.478 100.395C469.062 100.383 468.649 100.476 468.278 100.668C467.92 100.932 467.659 101.309 467.539 101.738C467.141 103.015 467.239 104.395 467.813 105.603C468.387 106.811 469.395 107.759 470.636 108.257C471.312 108.413 471.96 108.673 472.556 109.029C474.149 110.264 473.134 112.79 473.435 114.783C473.774 117.021 475.94 118.899 475.543 121.128C475.23 122.883 473.355 124.273 473.657 126.031C473.973 127.871 476.309 128.424 478.17 128.572C479.249 128.761 480.36 128.633 481.368 128.205C482.379 127.514 483.098 126.473 483.386 125.283C484.148 123.015 484.468 120.621 484.329 118.231C484.321 117.145 484.048 116.076 483.534 115.119C482.974 114.36 482.352 113.649 481.676 112.991C478.109 108.842 481.865 102.653 475.109 100.749Z" fill="#3F3D56"/>
</g>
</svg>
